<?xml version="1.0" encoding="UTF-8" standalone="no"?>
<!-- Created with Inkscape (http://www.inkscape.org/) -->

<svg
   xmlns:dc="http://purl.org/dc/elements/1.1/"
   xmlns:cc="http://creativecommons.org/ns#"
   xmlns:rdf="http://www.w3.org/1999/02/22-rdf-syntax-ns#"
   xmlns:svg="http://www.w3.org/2000/svg"
   xmlns="http://www.w3.org/2000/svg"
   xmlns:xlink="http://www.w3.org/1999/xlink"
   xmlns:sodipodi="http://sodipodi.sourceforge.net/DTD/sodipodi-0.dtd"
   xmlns:inkscape="http://www.inkscape.org/namespaces/inkscape"
   width="900"
   height="45"
   viewBox="0 0 900 45"
   id="svg2"
   version="1.1"
   inkscape:version="0.92.1 r15371"
   sodipodi:docname="logo_1.svg">
  <defs
     id="defs4">
    <linearGradient
       inkscape:collect="always"
       id="linearGradient4635">
      <stop
         style="stop-color:#000000;stop-opacity:0.39215687"
         offset="0"
         id="stop4631" />
      <stop
         style="stop-color:#000000;stop-opacity:0"
         offset="1"
         id="stop4633" />
    </linearGradient>
    <pattern
       y="0"
       x="0"
       height="6"
       width="6"
       patternUnits="userSpaceOnUse"
       id="EMFhbasepattern" />
    <radialGradient
       inkscape:collect="always"
       xlink:href="#linearGradient4635"
       id="radialGradient4637"
       cx="322.24402"
       cy="940.37799"
       fx="322.24402"
       fy="940.37799"
       r="123.87885"
       gradientTransform="matrix(2.2425455,0,0,0.16609212,-422.9265,873.6725)"
       gradientUnits="userSpaceOnUse" />
  </defs>
  <sodipodi:namedview
     id="base"
     pagecolor="#ffffff"
     bordercolor="#666666"
     borderopacity="1.0"
     inkscape:pageopacity="0.0"
     inkscape:pageshadow="2"
     inkscape:zoom="1.2433205"
     inkscape:cx="465.15415"
     inkscape:cy="-35.248435"
     inkscape:document-units="px"
     inkscape:current-layer="g4183"
     showgrid="false"
     units="px"
     inkscape:window-width="1920"
     inkscape:window-height="1028"
     inkscape:window-x="-8"
     inkscape:window-y="-8"
     inkscape:window-maximized="1"
     objecttolerance="10"
     guidetolerance="9"
     showguides="true"
     inkscape:guide-bbox="true" />
  <metadata
     id="metadata7">
    <rdf:RDF>
      <cc:Work
         rdf:about="">
        <dc:format>image/svg+xml</dc:format>
        <dc:type
           rdf:resource="http://purl.org/dc/dcmitype/StillImage" />
        <dc:title />
        <dc:creator>
          <cc:Agent>
            <dc:title>Jorge Rosa</dc:title>
          </cc:Agent>
        </dc:creator>
        <dc:description>Email: jorge.bigarte@gmail.com
Site:https://sites.google.com/site/jorgerosaportfolio</dc:description>
      </cc:Work>
    </rdf:RDF>
  </metadata>
  <g
     inkscape:label="Layer 1"
     inkscape:groupmode="layer"
     id="layer1"
     transform="translate(0,-1007.3622)">
    <g
       style="font-style:normal;font-variant:normal;font-weight:normal;font-stretch:normal;font-size:13.65747356px;line-height:100%;font-family:'Estrangelo Edessa';-inkscape-font-specification:'Estrangelo Edessa, Normal';text-align:start;letter-spacing:0px;word-spacing:0px;writing-mode:lr-tb;text-anchor:start;fill:#1e1e1e;fill-opacity:1;stroke:none;stroke-width:1px;stroke-linecap:butt;stroke-linejoin:miter;stroke-opacity:1"
       id="text4162">
      <g
         id="g4183"
         transform="translate(0.27924905)">
        <g
           id="g4651"
           transform="matrix(0.94299445,0,0,0.94299445,25.636583,59.250978)">
          <g
             transform="matrix(0.83137279,0,0,0.83137279,200.54107,173.12841)"
             id="text4528-5-3"
             style="font-style:normal;font-variant:normal;font-weight:normal;font-stretch:normal;font-size:24.31412697px;line-height:1.25;font-family:sans-serif;-inkscape-font-specification:'Estrangelo Edessa, Normal';text-align:start;letter-spacing:0px;word-spacing:0px;writing-mode:lr-tb;text-anchor:start;fill:#f0f0f0;fill-opacity:1;stroke:none;stroke-width:0.60785317px;stroke-linecap:butt;stroke-linejoin:miter;stroke-opacity:1"
             aria-label="DJ mixxx - after hours sessions">
            <path
               inkscape:connector-curvature="0"
               id="path4649"
               style="font-style:normal;font-variant:normal;font-weight:normal;font-stretch:normal;font-family:'Estrangelo Edessa';-inkscape-font-specification:'Estrangelo Edessa';fill:#f0f0f0;fill-opacity:1;stroke-width:0.60785317px"
               d="m 166.04647,1030.3832 q 0,-1.4128 -0.45114,-2.4338 -0.43927,-1.021 -1.27032,-1.6858 -0.81917,-0.6649 -2.01826,-0.9735 -1.18721,-0.3206 -2.6831,-0.3206 h -1.81644 v 11.3973 h 1.60274 q 1.51963,0 2.74246,-0.4156 1.23471,-0.4274 2.10137,-1.1991 0.86667,-0.7835 1.32968,-1.8876 0.46301,-1.116 0.46301,-2.4813 z m 2.41005,-0.024 q 0,1.7926 -0.66484,3.2648 -0.65297,1.4721 -1.84018,2.5288 -1.18722,1.0447 -2.83744,1.6146 -1.65023,0.5698 -3.63288,0.5698 h -4.01278 v -15.3625 h 4.20274 q 2.08949,0 3.71598,0.4749 1.63835,0.463 2.7662,1.4009 1.12785,0.926 1.70959,2.315 0.59361,1.3772 0.59361,3.1937 z" />
            <path
               inkscape:connector-curvature="0"
               id="path4651"
               style="font-style:normal;font-variant:normal;font-weight:normal;font-stretch:normal;font-family:'Estrangelo Edessa';-inkscape-font-specification:'Estrangelo Edessa';fill:#f0f0f0;fill-opacity:1;stroke-width:0.60785317px"
               d="m 175.93596,1022.975 v 11.4447 q 0,0.9379 -0.2137,1.7096 -0.20183,0.7598 -0.6411,1.3059 -0.43926,0.5343 -1.1041,0.8311 -0.66484,0.2849 -1.59087,0.2849 -0.58173,0 -1.08036,-0.095 -0.48676,-0.095 -0.89041,-0.2611 v -1.9708 q 0.40365,0.1662 0.87853,0.273 0.47489,0.095 0.80731,0.095 0.43927,0 0.7242,-0.1543 0.2968,-0.1544 0.47489,-0.4512 0.17808,-0.2968 0.24931,-0.7242 0.0831,-0.4392 0.0831,-1.0091 v -11.2785 z" />
            <path
               inkscape:connector-curvature="0"
               id="path4653"
               style="font-style:normal;font-variant:normal;font-weight:normal;font-stretch:normal;font-family:'Estrangelo Edessa';-inkscape-font-specification:'Estrangelo Edessa';fill:#f0f0f0;fill-opacity:1;stroke-width:0.60785317px"
               d="m 193.35238,1038.3375 h -2.29132 v -6.031 q 0,-1.0329 -0.40366,-1.579 -0.39178,-0.558 -1.19908,-0.558 -0.36804,0 -0.7242,0.1187 -0.35617,0.1069 -0.67671,0.2731 -0.30868,0.1662 -0.56987,0.368 -0.26118,0.19 -0.43926,0.3562 v 7.052 h -2.27945 v -9.747 h 2.20821 l 0.0475,0.9735 q 0.24932,-0.2137 0.55799,-0.4274 0.30868,-0.2255 0.67671,-0.3918 0.36804,-0.1662 0.77169,-0.273 0.41553,-0.1069 0.86667,-0.1069 1.10411,0 1.84018,0.4274 0.74794,0.4274 1.12785,1.1754 0.2968,-0.285 0.66484,-0.5699 0.37991,-0.2968 0.8073,-0.5224 0.4274,-0.2255 0.89041,-0.368 0.47489,-0.1425 0.96165,-0.1425 1.75707,0 2.58812,1.021 0.84292,1.0092 0.84292,2.8493 v 6.1023 h -2.29132 v -6.031 q 0,-1.0329 -0.40365,-1.579 -0.39178,-0.558 -1.17534,-0.558 -0.40365,0 -0.78356,0.1306 -0.36804,0.1306 -0.68859,0.3205 -0.32054,0.19 -0.58173,0.4156 -0.24932,0.2255 -0.40365,0.4155 0.0237,0.1306 0.0356,0.3799 0.0238,0.2374 0.0238,0.4036 z" />
            <path
               inkscape:connector-curvature="0"
               id="path4655"
               style="font-style:normal;font-variant:normal;font-weight:normal;font-stretch:normal;font-family:'Estrangelo Edessa';-inkscape-font-specification:'Estrangelo Edessa';fill:#f0f0f0;fill-opacity:1;stroke-width:0.60785317px"
               d="m 205.79437,1025.8124 q 0,0.285 -0.11872,0.5105 -0.11872,0.2256 -0.32055,0.3918 -0.18995,0.1543 -0.45114,0.2374 -0.26119,0.083 -0.54612,0.083 -0.5936,0 -1.00913,-0.3087 -0.40365,-0.3206 -0.40365,-0.9142 0,-0.5698 0.40365,-0.8904 0.41553,-0.3205 1.00913,-0.3205 0.28493,0 0.54612,0.083 0.26119,0.083 0.45114,0.2493 0.20183,0.1543 0.32055,0.3799 0.11872,0.2137 0.11872,0.4986 z m -0.32055,12.5251 h -2.27945 v -9.747 h 2.27945 z" />
            <path
               inkscape:connector-curvature="0"
               id="path4657"
               style="font-style:normal;font-variant:normal;font-weight:normal;font-stretch:normal;font-family:'Estrangelo Edessa';-inkscape-font-specification:'Estrangelo Edessa';fill:#f0f0f0;fill-opacity:1;stroke-width:0.60785317px"
               d="m 217.55965,1028.5905 -3.621,4.7607 q 0.4274,0.5699 0.89041,1.211 0.47489,0.6292 0.94977,1.2822 0.47489,0.6529 0.9379,1.294 0.47489,0.6293 0.89041,1.1991 h -2.52876 l -2.16073,-3.158 q -0.0712,-0.1187 -0.18995,-0.2968 -0.11873,-0.1899 -0.17809,-0.2612 -0.0594,0.071 -0.17808,0.2612 -0.10685,0.1781 -0.17808,0.2968 l -2.22009,3.158 h -2.48127 l 3.77533,-4.915 q -0.41552,-0.5699 -0.86666,-1.1873 -0.45114,-0.6173 -0.90228,-1.2347 -0.45114,-0.6292 -0.90229,-1.2347 -0.43926,-0.6054 -0.85479,-1.1753 h 2.52876 l 1.89955,2.8374 q 0.0356,0.059 0.095,0.1663 0.0712,0.1068 0.14247,0.2255 0.0712,0.1069 0.13059,0.2256 0.0594,0.1068 0.095,0.1662 0.0356,-0.071 0.095,-0.1781 0.0712,-0.1187 0.14246,-0.2374 0.0712,-0.1187 0.1306,-0.2137 0.0712,-0.1069 0.10684,-0.1544 0.53425,-0.7479 0.99726,-1.4246 0.47489,-0.6767 1.02101,-1.4128 z" />
            <path
               inkscape:connector-curvature="0"
               id="path4659"
               style="font-style:normal;font-variant:normal;font-weight:normal;font-stretch:normal;font-family:'Estrangelo Edessa';-inkscape-font-specification:'Estrangelo Edessa';fill:#f0f0f0;fill-opacity:1;stroke-width:0.60785317px"
               d="m 228.1021,1028.5905 -3.621,4.7607 q 0.4274,0.5699 0.89041,1.211 0.47489,0.6292 0.94977,1.2822 0.47489,0.6529 0.9379,1.294 0.47489,0.6293 0.89041,1.1991 h -2.52876 l -2.16073,-3.158 q -0.0712,-0.1187 -0.18995,-0.2968 -0.11873,-0.1899 -0.17809,-0.2612 -0.0594,0.071 -0.17808,0.2612 -0.10685,0.1781 -0.17808,0.2968 l -2.22009,3.158 h -2.48127 l 3.77533,-4.915 q -0.41552,-0.5699 -0.86666,-1.1873 -0.45114,-0.6173 -0.90228,-1.2347 -0.45114,-0.6292 -0.90229,-1.2347 -0.43926,-0.6054 -0.85479,-1.1753 h 2.52876 l 1.89955,2.8374 q 0.0356,0.059 0.095,0.1663 0.0712,0.1068 0.14247,0.2255 0.0712,0.1069 0.13059,0.2256 0.0594,0.1068 0.095,0.1662 0.0356,-0.071 0.095,-0.1781 0.0712,-0.1187 0.14246,-0.2374 0.0712,-0.1187 0.1306,-0.2137 0.0712,-0.1069 0.10684,-0.1544 0.53425,-0.7479 0.99726,-1.4246 0.47489,-0.6767 1.02101,-1.4128 z" />
            <path
               inkscape:connector-curvature="0"
               id="path4661"
               style="font-style:normal;font-variant:normal;font-weight:normal;font-stretch:normal;font-family:'Estrangelo Edessa';-inkscape-font-specification:'Estrangelo Edessa';fill:#f0f0f0;fill-opacity:1;stroke-width:0.60785317px"
               d="m 238.64456,1028.5905 -3.621,4.7607 q 0.4274,0.5699 0.89041,1.211 0.47489,0.6292 0.94977,1.2822 0.47489,0.6529 0.9379,1.294 0.47489,0.6293 0.89041,1.1991 h -2.52876 l -2.16073,-3.158 q -0.0712,-0.1187 -0.18996,-0.2968 -0.11872,-0.1899 -0.17808,-0.2612 -0.0594,0.071 -0.17808,0.2612 -0.10685,0.1781 -0.17808,0.2968 l -2.22009,3.158 h -2.48128 l 3.77534,-4.915 q -0.41552,-0.5699 -0.86666,-1.1873 -0.45115,-0.6173 -0.90229,-1.2347 -0.45114,-0.6292 -0.90228,-1.2347 -0.43927,-0.6054 -0.85479,-1.1753 h 2.52876 l 1.89954,2.8374 q 0.0356,0.059 0.095,0.1663 0.0712,0.1068 0.14247,0.2255 0.0712,0.1069 0.13059,0.2256 0.0594,0.1068 0.095,0.1662 0.0356,-0.071 0.095,-0.1781 0.0712,-0.1187 0.14247,-0.2374 0.0712,-0.1187 0.13059,-0.2137 0.0712,-0.1069 0.10685,-0.1544 0.53425,-0.7479 0.99726,-1.4246 0.47489,-0.6767 1.021,-1.4128 z" />
            <path
               inkscape:connector-curvature="0"
               id="path4663"
               style="font-style:normal;font-variant:normal;font-weight:normal;font-stretch:normal;font-family:'Estrangelo Edessa';-inkscape-font-specification:'Estrangelo Edessa';fill:#f0f0f0;fill-opacity:1;stroke-width:0.60785317px"
               d="m 251.13405,1034.1585 h -5.61552 v -2.0182 h 5.61552 z" />
            <path
               inkscape:connector-curvature="0"
               id="path4665"
               style="font-style:normal;font-variant:normal;font-weight:normal;font-stretch:normal;font-family:'Estrangelo Edessa';-inkscape-font-specification:'Estrangelo Edessa';fill:#f0f0f0;fill-opacity:1;stroke-width:0.60785317px"
               d="m 265.04818,1033.8617 q -0.27306,-0.024 -0.60548,-0.036 -0.33242,-0.012 -0.70045,-0.012 -0.79544,0 -1.30594,0.1425 -0.5105,0.1425 -0.8073,0.3799 -0.29681,0.2375 -0.41553,0.5343 -0.11872,0.2968 -0.11872,0.6173 0,0.6055 0.35616,0.9854 0.36804,0.3799 1.02101,0.3799 0.66484,0 1.35342,-0.2968 0.68858,-0.2968 1.22283,-0.7954 z m 2.19635,4.6895 q -0.43927,0 -0.77169,-0.095 -0.33242,-0.083 -0.56987,-0.2374 -0.23744,-0.1662 -0.40365,-0.3918 -0.15434,-0.2255 -0.24931,-0.5105 -0.56987,0.5224 -1.34155,0.8786 -0.77169,0.3561 -1.84018,0.3561 -0.83105,0 -1.46028,-0.2255 -0.61735,-0.2256 -1.03287,-0.6293 -0.40365,-0.4036 -0.61735,-0.9379 -0.20183,-0.5461 -0.20183,-1.1872 0,-1.5908 1.21096,-2.4338 1.22283,-0.8548 3.60913,-0.8548 0.35616,0 0.70045,0.024 0.35617,0.012 0.77169,0.048 0,-1.0804 -0.45114,-1.6503 -0.45114,-0.5817 -1.48402,-0.5817 -0.73607,0 -1.50776,0.19 -0.75981,0.178 -1.50776,0.4867 v -1.7689 q 0.65297,-0.3087 1.48402,-0.4868 0.84292,-0.1781 1.62648,-0.1781 1.00913,0 1.78082,0.2019 0.77169,0.1899 1.29406,0.6529 0.52238,0.4512 0.78356,1.1991 0.27306,0.748 0.27306,1.8402 v 3.7635 q 0,0.4274 0.2137,0.6292 0.22557,0.2018 0.46301,0.2018 0.23745,0 0.43927,-0.012 0.20183,-0.024 0.46302,-0.083 v 1.3653 q -0.29681,0.2137 -0.73608,0.3206 -0.42739,0.1068 -0.93789,0.1068 z" />
            <path
               inkscape:connector-curvature="0"
               id="path4667"
               style="font-style:normal;font-variant:normal;font-weight:normal;font-stretch:normal;font-family:'Estrangelo Edessa';-inkscape-font-specification:'Estrangelo Edessa';fill:#f0f0f0;fill-opacity:1;stroke-width:0.60785317px"
               d="m 273.82169,1028.5905 h 2.22009 v 1.5553 h -2.22009 v 8.1917 h -2.27945 v -8.1917 h -1.80457 v -1.5553 h 1.80457 v -2.137 q 0,-1.8045 0.87854,-2.7424 0.89041,-0.9379 2.42191,-0.9379 0.27306,0 0.61735,0.059 0.34429,0.059 0.58174,0.1425 v 1.8639 q -0.10685,-0.024 -0.26119,-0.047 -0.15434,-0.036 -0.32055,-0.048 -0.15434,-0.024 -0.2968,-0.036 -0.14247,-0.012 -0.24932,-0.012 -0.47488,0 -0.78356,0.38 -0.30867,0.3799 -0.30867,1.199 z" />
            <path
               inkscape:connector-curvature="0"
               id="path4669"
               style="font-style:normal;font-variant:normal;font-weight:normal;font-stretch:normal;font-family:'Estrangelo Edessa';-inkscape-font-specification:'Estrangelo Edessa';fill:#f0f0f0;fill-opacity:1;stroke-width:0.60785317px"
               d="m 283.73492,1038.1238 q -0.40365,0.2137 -0.97351,0.3206 -0.56987,0.1068 -1.18722,0.1068 -1.43652,0 -2.05388,-0.7835 -0.61735,-0.7836 -0.61735,-2.3982 v -5.2237 h -1.8283 v -1.5553 h 1.89954 q 0.20182,-0.6292 0.40365,-1.3059 0.2137,-0.6886 0.39178,-1.2941 h 1.41278 v 2.6 h 2.71872 v 1.5553 h -2.71872 v 5.568 q 0,0.5105 0.26119,0.831 0.26119,0.3087 0.75982,0.3087 0.43927,0 0.81917,-0.036 0.37991,-0.047 0.71233,-0.1069 z" />
            <path
               inkscape:connector-curvature="0"
               id="path4671"
               style="font-style:normal;font-variant:normal;font-weight:normal;font-stretch:normal;font-family:'Estrangelo Edessa';-inkscape-font-specification:'Estrangelo Edessa';fill:#f0f0f0;fill-opacity:1;stroke-width:0.60785317px"
               d="m 290.73948,1030.1458 q -1.13973,0 -1.86393,0.5817 -0.71233,0.5698 -0.94977,1.674 h 5.15251 q -0.0594,-1.1042 -0.66484,-1.674 -0.60548,-0.5817 -1.67397,-0.5817 z m -5.08128,3.2529 q 0,-1.1278 0.36804,-2.0539 0.36804,-0.9379 1.03287,-1.5908 0.67672,-0.6649 1.61461,-1.021 0.9379,-0.3681 2.0895,-0.3681 1.12785,0 1.97077,0.3325 0.8548,0.3205 1.43653,0.926 0.58174,0.6055 0.86667,1.484 0.2968,0.8785 0.2968,1.9826 v 0.9736 h -7.4557 q 0.0594,0.6054 0.30868,1.1278 0.26118,0.5105 0.68858,0.8785 0.43927,0.3681 1.021,0.5818 0.59361,0.2018 1.30594,0.2018 0.41552,0 0.87854,-0.071 0.47488,-0.083 0.96164,-0.2256 0.49863,-0.1543 0.98539,-0.368 0.49863,-0.2137 0.94977,-0.4987 v 1.7927 q -0.90229,0.5105 -1.91142,0.7955 -0.99726,0.273 -2.27945,0.273 -1.18721,0 -2.13698,-0.3443 -0.94977,-0.3561 -1.61461,-1.021 -0.66484,-0.6648 -1.021,-1.6146 -0.35617,-0.9616 -0.35617,-2.1726 z" />
            <path
               inkscape:connector-curvature="0"
               id="path4673"
               style="font-style:normal;font-variant:normal;font-weight:normal;font-stretch:normal;font-family:'Estrangelo Edessa';-inkscape-font-specification:'Estrangelo Edessa';fill:#f0f0f0;fill-opacity:1;stroke-width:0.60785317px"
               d="m 302.39792,1028.3649 q 0.40365,0 0.77169,0.095 0.3799,0.083 0.75981,0.2256 v 1.852 q -0.40365,-0.095 -0.85479,-0.1306 -0.45114,-0.047 -0.85479,-0.047 -0.45115,0 -0.77169,0.2018 -0.30868,0.1899 -0.49863,0.5224 -0.18996,0.3205 -0.27306,0.7598 -0.0831,0.4274 -0.0831,0.9023 v 5.5917 h -2.27945 v -6.4703 q 0,-0.4393 -0.0356,-0.926 -0.0356,-0.4868 -0.095,-0.9379 -0.0475,-0.4512 -0.11872,-0.8192 -0.0594,-0.3799 -0.11872,-0.5936 h 1.92328 q 0.0594,0.1069 0.11872,0.2968 0.0594,0.1781 0.10685,0.4037 0.0594,0.2137 0.10685,0.463 0.0475,0.2493 0.0712,0.4867 0.17808,-0.2968 0.3799,-0.6173 0.20183,-0.3324 0.46302,-0.6055 0.26118,-0.2849 0.56986,-0.463 0.32055,-0.19 0.71233,-0.19 z" />
            <path
               inkscape:connector-curvature="0"
               id="path4675"
               style="font-style:normal;font-variant:normal;font-weight:normal;font-stretch:normal;font-family:'Estrangelo Edessa';-inkscape-font-specification:'Estrangelo Edessa';fill:#f0f0f0;fill-opacity:1;stroke-width:0.60785317px"
               d="m 320.12301,1038.3375 h -2.29132 v -6.031 q 0,-1.0329 -0.4274,-1.579 -0.41552,-0.558 -1.27032,-0.558 -0.41552,0 -0.79543,0.1068 -0.36804,0.095 -0.68858,0.2612 -0.32055,0.1662 -0.58174,0.3681 -0.26118,0.2018 -0.46301,0.4036 v 7.0283 h -2.27945 v -15.3625 h 2.27945 v 4.9507 q 0,0.1424 -0.0119,0.3443 0,0.2018 -0.0119,0.4274 0,0.2137 -0.0119,0.4273 0,0.2019 -0.0119,0.3681 0.24932,-0.2137 0.58174,-0.4155 0.33242,-0.2019 0.7242,-0.3562 0.39178,-0.1662 0.81917,-0.2612 0.43927,-0.095 0.89041,-0.095 1.81644,0 2.6831,0.9973 0.86667,0.9973 0.86667,2.8493 z" />
            <path
               inkscape:connector-curvature="0"
               id="path4677"
               style="font-style:normal;font-variant:normal;font-weight:normal;font-stretch:normal;font-family:'Estrangelo Edessa';-inkscape-font-specification:'Estrangelo Edessa';fill:#f0f0f0;fill-opacity:1;stroke-width:0.60785317px"
               d="m 330.89103,1033.4225 q 0,-1.6146 -0.71233,-2.4338 -0.71233,-0.8192 -2.07762,-0.8192 -1.37717,0 -2.14886,0.8429 -0.77169,0.8429 -0.77169,2.4576 0,0.7716 0.20183,1.389 0.20182,0.6055 0.58173,1.0329 0.37991,0.4155 0.91416,0.6411 0.54611,0.2255 1.22283,0.2255 1.36529,0 2.07762,-0.8548 0.71233,-0.8548 0.71233,-2.4812 z m 2.29132,0 q 0,1.1516 -0.36804,2.1013 -0.36803,0.9498 -1.04475,1.6265 -0.67671,0.6649 -1.65022,1.0329 -0.96165,0.368 -2.1726,0.368 -1.16347,0 -2.11324,-0.3561 -0.9379,-0.3562 -1.60274,-0.9973 -0.66484,-0.653 -1.03288,-1.579 -0.35616,-0.926 -0.35616,-2.0657 0,-1.2229 0.36804,-2.1845 0.36803,-0.9617 1.05662,-1.6265 0.70045,-0.6767 1.68584,-1.021 0.99726,-0.3562 2.24383,-0.3562 1.19909,0 2.12511,0.3443 0.92603,0.3443 1.55525,0.9973 0.6411,0.653 0.97352,1.5908 0.33242,0.9379 0.33242,2.1252 z" />
            <path
               inkscape:connector-curvature="0"
               id="path4679"
               style="font-style:normal;font-variant:normal;font-weight:normal;font-stretch:normal;font-family:'Estrangelo Edessa';-inkscape-font-specification:'Estrangelo Edessa';fill:#f0f0f0;fill-opacity:1;stroke-width:0.60785317px"
               d="m 335.93669,1028.5905 h 2.29132 v 6.031 q 0,1.0211 0.41553,1.579 0.42739,0.558 1.28219,0.558 0.37991,0 0.73607,-0.095 0.36804,-0.095 0.68858,-0.2494 0.32055,-0.1662 0.59361,-0.3561 0.28493,-0.2019 0.5105,-0.4155 v -7.0521 h 2.29132 v 9.747 h -2.22008 l -0.0712,-0.9735 q -0.24931,0.2256 -0.55799,0.4393 -0.30867,0.2137 -0.68858,0.3799 -0.36804,0.1662 -0.80731,0.2612 -0.42739,0.1068 -0.91415,0.1068 -1.81644,0 -2.6831,-0.9616 -0.86667,-0.9735 -0.86667,-2.8256 z" />
            <path
               inkscape:connector-curvature="0"
               id="path4681"
               style="font-style:normal;font-variant:normal;font-weight:normal;font-stretch:normal;font-family:'Estrangelo Edessa';-inkscape-font-specification:'Estrangelo Edessa';fill:#f0f0f0;fill-opacity:1;stroke-width:0.60785317px"
               d="m 352.49831,1028.3649 q 0.40365,0 0.77168,0.095 0.37991,0.083 0.75982,0.2256 v 1.852 q -0.40365,-0.095 -0.85479,-0.1306 -0.45114,-0.047 -0.8548,-0.047 -0.45114,0 -0.77169,0.2018 -0.30867,0.1899 -0.49862,0.5224 -0.18996,0.3205 -0.27306,0.7598 -0.0831,0.4274 -0.0831,0.9023 v 5.5917 h -2.27945 v -6.4703 q 0,-0.4393 -0.0356,-0.926 -0.0356,-0.4868 -0.095,-0.9379 -0.0475,-0.4512 -0.11872,-0.8192 -0.0594,-0.3799 -0.11872,-0.5936 h 1.92328 q 0.0594,0.1069 0.11872,0.2968 0.0594,0.1781 0.10685,0.4037 0.0594,0.2137 0.10685,0.463 0.0475,0.2493 0.0712,0.4867 0.17809,-0.2968 0.37991,-0.6173 0.20183,-0.3324 0.46301,-0.6055 0.26119,-0.2849 0.56987,-0.463 0.32054,-0.19 0.71233,-0.19 z" />
            <path
               inkscape:connector-curvature="0"
               id="path4683"
               style="font-style:normal;font-variant:normal;font-weight:normal;font-stretch:normal;font-family:'Estrangelo Edessa';-inkscape-font-specification:'Estrangelo Edessa';fill:#f0f0f0;fill-opacity:1;stroke-width:0.60785317px"
               d="m 362.15035,1035.5951 q 0,0.6292 -0.22557,1.1753 -0.2137,0.5342 -0.66484,0.9379 -0.43927,0.3918 -1.11598,0.6174 -0.66484,0.2255 -1.56712,0.2255 -0.87854,0 -1.6621,-0.2137 -0.78356,-0.2255 -1.32968,-0.6292 v -1.9708 q 0.30868,0.2137 0.67671,0.4156 0.37991,0.2018 0.77169,0.3561 0.39178,0.1425 0.77169,0.2375 0.37991,0.083 0.70045,0.083 0.77169,0 1.12786,-0.3325 0.35616,-0.3324 0.35616,-0.8073 0,-0.2493 -0.0712,-0.4392 -0.0712,-0.2019 -0.27306,-0.3681 -0.18996,-0.178 -0.54612,-0.3443 -0.34429,-0.1662 -0.89041,-0.3561 -0.74794,-0.2731 -1.25845,-0.5699 -0.49862,-0.3087 -0.8073,-0.6648 -0.2968,-0.3681 -0.4274,-0.7836 -0.13059,-0.4274 -0.13059,-0.926 0,-0.6411 0.27306,-1.1635 0.28493,-0.5342 0.75982,-0.9141 0.48675,-0.3799 1.12785,-0.5818 0.65297,-0.2137 1.38904,-0.2137 0.66484,0 1.30593,0.1306 0.6411,0.1306 1.24658,0.4512 v 1.7808 q -0.58174,-0.2612 -1.23471,-0.4274 -0.64109,-0.1781 -1.27031,-0.1781 -0.73608,0 -1.11598,0.3087 -0.36804,0.3087 -0.36804,0.7835 0,0.2019 0.0712,0.38 0.0831,0.178 0.27306,0.3442 0.18996,0.1663 0.52237,0.3443 0.33242,0.1662 0.84293,0.3443 0.71232,0.2493 1.22283,0.5343 0.52237,0.273 0.85479,0.6173 0.34429,0.3443 0.49863,0.7955 0.16621,0.4392 0.16621,1.021 z" />
            <path
               inkscape:connector-curvature="0"
               id="path4685"
               style="font-style:normal;font-variant:normal;font-weight:normal;font-stretch:normal;font-family:'Estrangelo Edessa';-inkscape-font-specification:'Estrangelo Edessa';fill:#f0f0f0;fill-opacity:1;stroke-width:0.60785317px"
               d="m 375.68459,1035.5951 q 0,0.6292 -0.22557,1.1753 -0.2137,0.5342 -0.66484,0.9379 -0.43927,0.3918 -1.11598,0.6174 -0.66484,0.2255 -1.56712,0.2255 -0.87854,0 -1.6621,-0.2137 -0.78356,-0.2255 -1.32968,-0.6292 v -1.9708 q 0.30868,0.2137 0.67671,0.4156 0.37991,0.2018 0.77169,0.3561 0.39178,0.1425 0.77169,0.2375 0.37991,0.083 0.70046,0.083 0.77168,0 1.12785,-0.3325 0.35616,-0.3324 0.35616,-0.8073 0,-0.2493 -0.0712,-0.4392 -0.0712,-0.2019 -0.27306,-0.3681 -0.18995,-0.178 -0.54612,-0.3443 -0.34429,-0.1662 -0.89041,-0.3561 -0.74794,-0.2731 -1.25844,-0.5699 -0.49863,-0.3087 -0.80731,-0.6648 -0.2968,-0.3681 -0.4274,-0.7836 -0.13059,-0.4274 -0.13059,-0.926 0,-0.6411 0.27306,-1.1635 0.28493,-0.5342 0.75982,-0.9141 0.48675,-0.3799 1.12785,-0.5818 0.65297,-0.2137 1.38904,-0.2137 0.66484,0 1.30593,0.1306 0.6411,0.1306 1.24658,0.4512 v 1.7808 q -0.58174,-0.2612 -1.23471,-0.4274 -0.64109,-0.1781 -1.27031,-0.1781 -0.73608,0 -1.11598,0.3087 -0.36804,0.3087 -0.36804,0.7835 0,0.2019 0.0712,0.38 0.0831,0.178 0.27306,0.3442 0.18996,0.1663 0.52238,0.3443 0.33242,0.1662 0.84292,0.3443 0.71233,0.2493 1.22283,0.5343 0.52237,0.273 0.85479,0.6173 0.34429,0.3443 0.49863,0.7955 0.16621,0.4392 0.16621,1.021 z" />
            <path
               inkscape:connector-curvature="0"
               id="path4687"
               style="font-style:normal;font-variant:normal;font-weight:normal;font-stretch:normal;font-family:'Estrangelo Edessa';-inkscape-font-specification:'Estrangelo Edessa';fill:#f0f0f0;fill-opacity:1;stroke-width:0.60785317px"
               d="m 382.81974,1030.1458 q -1.13973,0 -1.86393,0.5817 -0.71233,0.5698 -0.94977,1.674 h 5.15251 q -0.0594,-1.1042 -0.66484,-1.674 -0.60548,-0.5817 -1.67397,-0.5817 z m -5.08128,3.2529 q 0,-1.1278 0.36804,-2.0539 0.36804,-0.9379 1.03288,-1.5908 0.67671,-0.6649 1.61461,-1.021 0.93789,-0.3681 2.08949,-0.3681 1.12785,0 1.97078,0.3325 0.85479,0.3205 1.43652,0.926 0.58174,0.6055 0.86667,1.484 0.2968,0.8785 0.2968,1.9826 v 0.9736 h -7.4557 q 0.0594,0.6054 0.30868,1.1278 0.26119,0.5105 0.68858,0.8785 0.43927,0.3681 1.02101,0.5818 0.5936,0.2018 1.30593,0.2018 0.41552,0 0.87854,-0.071 0.47488,-0.083 0.96164,-0.2256 0.49863,-0.1543 0.98539,-0.368 0.49863,-0.2137 0.94977,-0.4987 v 1.7927 q -0.90228,0.5105 -1.91142,0.7955 -0.99725,0.273 -2.27944,0.273 -1.18722,0 -2.13699,-0.3443 -0.94977,-0.3561 -1.61461,-1.021 -0.66484,-0.6648 -1.021,-1.6146 -0.35617,-0.9616 -0.35617,-2.1726 z" />
            <path
               inkscape:connector-curvature="0"
               id="path4689"
               style="font-style:normal;font-variant:normal;font-weight:normal;font-stretch:normal;font-family:'Estrangelo Edessa';-inkscape-font-specification:'Estrangelo Edessa';fill:#f0f0f0;fill-opacity:1;stroke-width:0.60785317px"
               d="m 396.15213,1035.5951 q 0,0.6292 -0.22557,1.1753 -0.21369,0.5342 -0.66484,0.9379 -0.43926,0.3918 -1.11598,0.6174 -0.66484,0.2255 -1.56712,0.2255 -0.87854,0 -1.6621,-0.2137 -0.78356,-0.2255 -1.32967,-0.6292 v -1.9708 q 0.30867,0.2137 0.67671,0.4156 0.3799,0.2018 0.77169,0.3561 0.39178,0.1425 0.77168,0.2375 0.37991,0.083 0.70046,0.083 0.77169,0 1.12785,-0.3325 0.35617,-0.3324 0.35617,-0.8073 0,-0.2493 -0.0712,-0.4392 -0.0712,-0.2019 -0.27306,-0.3681 -0.18995,-0.178 -0.54611,-0.3443 -0.3443,-0.1662 -0.89041,-0.3561 -0.74795,-0.2731 -1.25845,-0.5699 -0.49863,-0.3087 -0.8073,-0.6648 -0.29681,-0.3681 -0.4274,-0.7836 -0.13059,-0.4274 -0.13059,-0.926 0,-0.6411 0.27305,-1.1635 0.28494,-0.5342 0.75982,-0.9141 0.48676,-0.3799 1.12785,-0.5818 0.65297,-0.2137 1.38904,-0.2137 0.66484,0 1.30594,0.1306 0.64109,0.1306 1.24657,0.4512 v 1.7808 q -0.58173,-0.2612 -1.2347,-0.4274 -0.6411,-0.1781 -1.27032,-0.1781 -0.73607,0 -1.11598,0.3087 -0.36804,0.3087 -0.36804,0.7835 0,0.2019 0.0712,0.38 0.0831,0.178 0.27306,0.3442 0.18995,0.1663 0.52237,0.3443 0.33242,0.1662 0.84292,0.3443 0.71233,0.2493 1.22283,0.5343 0.52238,0.273 0.85479,0.6173 0.3443,0.3443 0.49863,0.7955 0.16621,0.4392 0.16621,1.021 z" />
            <path
               inkscape:connector-curvature="0"
               id="path4691"
               style="font-style:normal;font-variant:normal;font-weight:normal;font-stretch:normal;font-family:'Estrangelo Edessa';-inkscape-font-specification:'Estrangelo Edessa';fill:#f0f0f0;fill-opacity:1;stroke-width:0.60785317px"
               d="m 404.65259,1035.5951 q 0,0.6292 -0.22557,1.1753 -0.2137,0.5342 -0.66484,0.9379 -0.43927,0.3918 -1.11598,0.6174 -0.66484,0.2255 -1.56712,0.2255 -0.87854,0 -1.6621,-0.2137 -0.78356,-0.2255 -1.32968,-0.6292 v -1.9708 q 0.30868,0.2137 0.67671,0.4156 0.37991,0.2018 0.77169,0.3561 0.39178,0.1425 0.77169,0.2375 0.37991,0.083 0.70046,0.083 0.77169,0 1.12785,-0.3325 0.35616,-0.3324 0.35616,-0.8073 0,-0.2493 -0.0712,-0.4392 -0.0712,-0.2019 -0.27306,-0.3681 -0.18995,-0.178 -0.54612,-0.3443 -0.34429,-0.1662 -0.89041,-0.3561 -0.74794,-0.2731 -1.25844,-0.5699 -0.49863,-0.3087 -0.80731,-0.6648 -0.2968,-0.3681 -0.42739,-0.7836 -0.1306,-0.4274 -0.1306,-0.926 0,-0.6411 0.27306,-1.1635 0.28493,-0.5342 0.75982,-0.9141 0.48676,-0.3799 1.12785,-0.5818 0.65297,-0.2137 1.38904,-0.2137 0.66484,0 1.30593,0.1306 0.6411,0.1306 1.24658,0.4512 v 1.7808 q -0.58174,-0.2612 -1.2347,-0.4274 -0.6411,-0.1781 -1.27032,-0.1781 -0.73607,0 -1.11598,0.3087 -0.36804,0.3087 -0.36804,0.7835 0,0.2019 0.0712,0.38 0.0831,0.178 0.27305,0.3442 0.18996,0.1663 0.52238,0.3443 0.33242,0.1662 0.84292,0.3443 0.71233,0.2493 1.22283,0.5343 0.52237,0.273 0.85479,0.6173 0.34429,0.3443 0.49863,0.7955 0.16621,0.4392 0.16621,1.021 z" />
            <path
               inkscape:connector-curvature="0"
               id="path4693"
               style="font-style:normal;font-variant:normal;font-weight:normal;font-stretch:normal;font-family:'Estrangelo Edessa';-inkscape-font-specification:'Estrangelo Edessa';fill:#f0f0f0;fill-opacity:1;stroke-width:0.60785317px"
               d="m 409.99505,1025.8124 q 0,0.285 -0.11872,0.5105 -0.11873,0.2256 -0.32055,0.3918 -0.18996,0.1543 -0.45114,0.2374 -0.26119,0.083 -0.54612,0.083 -0.59361,0 -1.00913,-0.3087 -0.40365,-0.3206 -0.40365,-0.9142 0,-0.5698 0.40365,-0.8904 0.41552,-0.3205 1.00913,-0.3205 0.28493,0 0.54612,0.083 0.26118,0.083 0.45114,0.2493 0.20182,0.1543 0.32055,0.3799 0.11872,0.2137 0.11872,0.4986 z m -0.32055,12.5251 h -2.27945 v -9.747 h 2.27945 z" />
            <path
               inkscape:connector-curvature="0"
               id="path4695"
               style="font-style:normal;font-variant:normal;font-weight:normal;font-stretch:normal;font-family:'Estrangelo Edessa';-inkscape-font-specification:'Estrangelo Edessa';fill:#f0f0f0;fill-opacity:1;stroke-width:0.60785317px"
               d="m 420.69184,1033.4225 q 0,-1.6146 -0.71233,-2.4338 -0.71233,-0.8192 -2.07762,-0.8192 -1.37717,0 -2.14886,0.8429 -0.77169,0.8429 -0.77169,2.4576 0,0.7716 0.20183,1.389 0.20182,0.6055 0.58173,1.0329 0.37991,0.4155 0.91416,0.6411 0.54612,0.2255 1.22283,0.2255 1.36529,0 2.07762,-0.8548 0.71233,-0.8548 0.71233,-2.4812 z m 2.29132,0 q 0,1.1516 -0.36804,2.1013 -0.36803,0.9498 -1.04474,1.6265 -0.67672,0.6649 -1.65023,1.0329 -0.96164,0.368 -2.1726,0.368 -1.16347,0 -2.11324,-0.3561 -0.9379,-0.3562 -1.60274,-0.9973 -0.66484,-0.653 -1.03287,-1.579 -0.35617,-0.926 -0.35617,-2.0657 0,-1.2229 0.36804,-2.1845 0.36803,-0.9617 1.05662,-1.6265 0.70045,-0.6767 1.68584,-1.021 0.99726,-0.3562 2.24383,-0.3562 1.19909,0 2.12512,0.3443 0.92602,0.3443 1.55525,0.9973 0.64109,0.653 0.97351,1.5908 0.33242,0.9379 0.33242,2.1252 z" />
            <path
               inkscape:connector-curvature="0"
               id="path4697"
               style="font-style:normal;font-variant:normal;font-weight:normal;font-stretch:normal;font-family:'Estrangelo Edessa';-inkscape-font-specification:'Estrangelo Edessa';fill:#f0f0f0;fill-opacity:1;stroke-width:0.60785317px"
               d="M 434.76032,1038.3375 H 432.469 v -6.031 q 0,-1.0329 -0.42739,-1.579 -0.41553,-0.558 -1.27032,-0.558 -0.37991,0 -0.74795,0.095 -0.35616,0.095 -0.67671,0.2612 -0.32055,0.1543 -0.60548,0.3561 -0.27306,0.19 -0.49863,0.4037 v 7.052 h -2.27945 v -9.747 h 2.20822 l 0.0712,0.9735 q 0.24932,-0.2374 0.55799,-0.4511 0.30868,-0.2137 0.67672,-0.3799 0.3799,-0.1662 0.8073,-0.2612 0.43927,-0.1069 0.92603,-0.1069 1.81643,0 2.6831,0.9735 0.86666,0.9736 0.86666,2.8256 z" />
            <path
               inkscape:connector-curvature="0"
               id="path4699"
               style="font-style:normal;font-variant:normal;font-weight:normal;font-stretch:normal;font-family:'Estrangelo Edessa';-inkscape-font-specification:'Estrangelo Edessa';fill:#f0f0f0;fill-opacity:1;stroke-width:0.60785317px"
               d="m 443.9731,1035.5951 q 0,0.6292 -0.22557,1.1753 -0.2137,0.5342 -0.66484,0.9379 -0.43927,0.3918 -1.11598,0.6174 -0.66484,0.2255 -1.56712,0.2255 -0.87854,0 -1.6621,-0.2137 -0.78356,-0.2255 -1.32968,-0.6292 v -1.9708 q 0.30868,0.2137 0.67672,0.4156 0.3799,0.2018 0.77168,0.3561 0.39178,0.1425 0.77169,0.2375 0.37991,0.083 0.70046,0.083 0.77169,0 1.12785,-0.3325 0.35616,-0.3324 0.35616,-0.8073 0,-0.2493 -0.0712,-0.4392 -0.0712,-0.2019 -0.27306,-0.3681 -0.18995,-0.178 -0.54612,-0.3443 -0.34429,-0.1662 -0.89041,-0.3561 -0.74794,-0.2731 -1.25844,-0.5699 -0.49863,-0.3087 -0.80731,-0.6648 -0.2968,-0.3681 -0.42739,-0.7836 -0.1306,-0.4274 -0.1306,-0.926 0,-0.6411 0.27306,-1.1635 0.28493,-0.5342 0.75982,-0.9141 0.48676,-0.3799 1.12785,-0.5818 0.65297,-0.2137 1.38904,-0.2137 0.66484,0 1.30594,0.1306 0.64109,0.1306 1.24657,0.4512 v 1.7808 q -0.58173,-0.2612 -1.2347,-0.4274 -0.6411,-0.1781 -1.27032,-0.1781 -0.73607,0 -1.11598,0.3087 -0.36804,0.3087 -0.36804,0.7835 0,0.2019 0.0712,0.38 0.0831,0.178 0.27306,0.3442 0.18995,0.1663 0.52237,0.3443 0.33242,0.1662 0.84292,0.3443 0.71233,0.2493 1.22283,0.5343 0.52237,0.273 0.85479,0.6173 0.3443,0.3443 0.49863,0.7955 0.16621,0.4392 0.16621,1.021 z" />
          </g>
          <g
             transform="matrix(0.83137279,0,0,0.83137279,200.54107,173.12791)"
             id="text4528-5"
             style="font-style:normal;font-variant:normal;font-weight:normal;font-stretch:normal;font-size:24.31412697px;line-height:1.25;font-family:sans-serif;-inkscape-font-specification:'Estrangelo Edessa, Normal';text-align:start;letter-spacing:0px;word-spacing:0px;writing-mode:lr-tb;text-anchor:start;fill:#000000;fill-opacity:1;stroke:none;stroke-width:0.60785317px;stroke-linecap:butt;stroke-linejoin:miter;stroke-opacity:1"
             aria-label="DJ mixxx - after hours sessions">
            <path
               inkscape:connector-curvature="0"
               id="path4596"
               style="font-style:normal;font-variant:normal;font-weight:normal;font-stretch:normal;font-family:'Estrangelo Edessa';-inkscape-font-specification:'Estrangelo Edessa';fill:#000000;fill-opacity:1;stroke-width:0.60785317px"
               d="m 166.04647,1028.6831 q 0,-1.4128 -0.45114,-2.4338 -0.43927,-1.021 -1.27032,-1.6858 -0.81917,-0.6648 -2.01826,-0.9735 -1.18721,-0.3206 -2.6831,-0.3206 h -1.81644 v 11.3973 h 1.60274 q 1.51963,0 2.74246,-0.4155 1.23471,-0.4274 2.10137,-1.1991 0.86667,-0.7836 1.32968,-1.8877 0.46301,-1.116 0.46301,-2.4813 z m 2.41005,-0.024 q 0,1.7927 -0.66484,3.2648 -0.65297,1.4722 -1.84018,2.5288 -1.18722,1.0447 -2.83744,1.6146 -1.65023,0.5699 -3.63288,0.5699 h -4.01278 v -15.3626 h 4.20274 q 2.08949,0 3.71598,0.4749 1.63835,0.463 2.7662,1.4009 1.12785,0.926 1.70959,2.3151 0.59361,1.3771 0.59361,3.1936 z" />
            <path
               inkscape:connector-curvature="0"
               id="path4598"
               style="font-style:normal;font-variant:normal;font-weight:normal;font-stretch:normal;font-family:'Estrangelo Edessa';-inkscape-font-specification:'Estrangelo Edessa';fill:#000000;fill-opacity:1;stroke-width:0.60785317px"
               d="m 175.93596,1021.2749 v 11.4447 q 0,0.9379 -0.2137,1.7096 -0.20183,0.7599 -0.6411,1.306 -0.43926,0.5342 -1.1041,0.831 -0.66484,0.2849 -1.59087,0.2849 -0.58173,0 -1.08036,-0.095 -0.48676,-0.095 -0.89041,-0.2612 v -1.9708 q 0.40365,0.1662 0.87853,0.2731 0.47489,0.095 0.80731,0.095 0.43927,0 0.7242,-0.1543 0.2968,-0.1543 0.47489,-0.4511 0.17808,-0.2968 0.24931,-0.7242 0.0831,-0.4393 0.0831,-1.0092 v -11.2785 z" />
            <path
               inkscape:connector-curvature="0"
               id="path4600"
               style="font-style:normal;font-variant:normal;font-weight:normal;font-stretch:normal;font-family:'Estrangelo Edessa';-inkscape-font-specification:'Estrangelo Edessa';fill:#000000;fill-opacity:1;stroke-width:0.60785317px"
               d="m 193.35238,1036.6375 h -2.29132 v -6.0311 q 0,-1.0329 -0.40366,-1.579 -0.39178,-0.558 -1.19908,-0.558 -0.36804,0 -0.7242,0.1187 -0.35617,0.1069 -0.67671,0.2731 -0.30868,0.1662 -0.56987,0.368 -0.26118,0.19 -0.43926,0.3562 v 7.0521 h -2.27945 v -9.7471 h 2.20821 l 0.0475,0.9735 q 0.24932,-0.2137 0.55799,-0.4274 0.30868,-0.2255 0.67671,-0.3917 0.36804,-0.1662 0.77169,-0.2731 0.41553,-0.1068 0.86667,-0.1068 1.10411,0 1.84018,0.4274 0.74794,0.4274 1.12785,1.1753 0.2968,-0.2849 0.66484,-0.5699 0.37991,-0.2968 0.8073,-0.5223 0.4274,-0.2256 0.89041,-0.3681 0.47489,-0.1424 0.96165,-0.1424 1.75707,0 2.58812,1.021 0.84292,1.0091 0.84292,2.8493 v 6.1023 h -2.29132 v -6.0311 q 0,-1.0329 -0.40365,-1.579 -0.39178,-0.558 -1.17534,-0.558 -0.40365,0 -0.78356,0.1306 -0.36804,0.1306 -0.68859,0.3206 -0.32054,0.1899 -0.58173,0.4155 -0.24932,0.2256 -0.40365,0.4155 0.0237,0.1306 0.0356,0.3799 0.0238,0.2375 0.0238,0.4037 z" />
            <path
               inkscape:connector-curvature="0"
               id="path4602"
               style="font-style:normal;font-variant:normal;font-weight:normal;font-stretch:normal;font-family:'Estrangelo Edessa';-inkscape-font-specification:'Estrangelo Edessa';fill:#000000;fill-opacity:1;stroke-width:0.60785317px"
               d="m 205.79437,1024.1124 q 0,0.2849 -0.11872,0.5105 -0.11872,0.2255 -0.32055,0.3917 -0.18995,0.1544 -0.45114,0.2375 -0.26119,0.083 -0.54612,0.083 -0.5936,0 -1.00913,-0.3087 -0.40365,-0.3205 -0.40365,-0.9141 0,-0.5699 0.40365,-0.8905 0.41553,-0.3205 1.00913,-0.3205 0.28493,0 0.54612,0.083 0.26119,0.083 0.45114,0.2493 0.20183,0.1544 0.32055,0.3799 0.11872,0.2137 0.11872,0.4987 z m -0.32055,12.5251 h -2.27945 v -9.7471 h 2.27945 z" />
            <path
               inkscape:connector-curvature="0"
               id="path4604"
               style="font-style:normal;font-variant:normal;font-weight:normal;font-stretch:normal;font-family:'Estrangelo Edessa';-inkscape-font-specification:'Estrangelo Edessa';fill:#000000;fill-opacity:1;stroke-width:0.60785317px"
               d="m 217.55965,1026.8904 -3.621,4.7608 q 0.4274,0.5698 0.89041,1.2109 0.47489,0.6292 0.94977,1.2822 0.47489,0.653 0.9379,1.2941 0.47489,0.6292 0.89041,1.1991 h -2.52876 l -2.16073,-3.158 q -0.0712,-0.1188 -0.18995,-0.2968 -0.11873,-0.19 -0.17809,-0.2612 -0.0594,0.071 -0.17808,0.2612 -0.10685,0.178 -0.17808,0.2968 l -2.22009,3.158 h -2.48127 l 3.77533,-4.9151 q -0.41552,-0.5699 -0.86666,-1.1872 -0.45114,-0.6174 -0.90228,-1.2347 -0.45114,-0.6292 -0.90229,-1.2347 -0.43926,-0.6055 -0.85479,-1.1754 h 2.52876 l 1.89955,2.8375 q 0.0356,0.059 0.095,0.1662 0.0712,0.1068 0.14247,0.2256 0.0712,0.1068 0.13059,0.2255 0.0594,0.1069 0.095,0.1662 0.0356,-0.071 0.095,-0.1781 0.0712,-0.1187 0.14246,-0.2374 0.0712,-0.1187 0.1306,-0.2137 0.0712,-0.1068 0.10684,-0.1543 0.53425,-0.748 0.99726,-1.4247 0.47489,-0.6767 1.02101,-1.4128 z" />
            <path
               inkscape:connector-curvature="0"
               id="path4606"
               style="font-style:normal;font-variant:normal;font-weight:normal;font-stretch:normal;font-family:'Estrangelo Edessa';-inkscape-font-specification:'Estrangelo Edessa';fill:#000000;fill-opacity:1;stroke-width:0.60785317px"
               d="m 228.1021,1026.8904 -3.621,4.7608 q 0.4274,0.5698 0.89041,1.2109 0.47489,0.6292 0.94977,1.2822 0.47489,0.653 0.9379,1.2941 0.47489,0.6292 0.89041,1.1991 h -2.52876 l -2.16073,-3.158 q -0.0712,-0.1188 -0.18995,-0.2968 -0.11873,-0.19 -0.17809,-0.2612 -0.0594,0.071 -0.17808,0.2612 -0.10685,0.178 -0.17808,0.2968 l -2.22009,3.158 h -2.48127 l 3.77533,-4.9151 q -0.41552,-0.5699 -0.86666,-1.1872 -0.45114,-0.6174 -0.90228,-1.2347 -0.45114,-0.6292 -0.90229,-1.2347 -0.43926,-0.6055 -0.85479,-1.1754 h 2.52876 l 1.89955,2.8375 q 0.0356,0.059 0.095,0.1662 0.0712,0.1068 0.14247,0.2256 0.0712,0.1068 0.13059,0.2255 0.0594,0.1069 0.095,0.1662 0.0356,-0.071 0.095,-0.1781 0.0712,-0.1187 0.14246,-0.2374 0.0712,-0.1187 0.1306,-0.2137 0.0712,-0.1068 0.10684,-0.1543 0.53425,-0.748 0.99726,-1.4247 0.47489,-0.6767 1.02101,-1.4128 z" />
            <path
               inkscape:connector-curvature="0"
               id="path4608"
               style="font-style:normal;font-variant:normal;font-weight:normal;font-stretch:normal;font-family:'Estrangelo Edessa';-inkscape-font-specification:'Estrangelo Edessa';fill:#000000;fill-opacity:1;stroke-width:0.60785317px"
               d="m 238.64456,1026.8904 -3.621,4.7608 q 0.4274,0.5698 0.89041,1.2109 0.47489,0.6292 0.94977,1.2822 0.47489,0.653 0.9379,1.2941 0.47489,0.6292 0.89041,1.1991 h -2.52876 l -2.16073,-3.158 q -0.0712,-0.1188 -0.18996,-0.2968 -0.11872,-0.19 -0.17808,-0.2612 -0.0594,0.071 -0.17808,0.2612 -0.10685,0.178 -0.17808,0.2968 l -2.22009,3.158 h -2.48128 l 3.77534,-4.9151 q -0.41552,-0.5699 -0.86666,-1.1872 -0.45115,-0.6174 -0.90229,-1.2347 -0.45114,-0.6292 -0.90228,-1.2347 -0.43927,-0.6055 -0.85479,-1.1754 h 2.52876 l 1.89954,2.8375 q 0.0356,0.059 0.095,0.1662 0.0712,0.1068 0.14247,0.2256 0.0712,0.1068 0.13059,0.2255 0.0594,0.1069 0.095,0.1662 0.0356,-0.071 0.095,-0.1781 0.0712,-0.1187 0.14247,-0.2374 0.0712,-0.1187 0.13059,-0.2137 0.0712,-0.1068 0.10685,-0.1543 0.53425,-0.748 0.99726,-1.4247 0.47489,-0.6767 1.021,-1.4128 z" />
            <path
               inkscape:connector-curvature="0"
               id="path4610"
               style="font-style:normal;font-variant:normal;font-weight:normal;font-stretch:normal;font-family:'Estrangelo Edessa';-inkscape-font-specification:'Estrangelo Edessa';fill:#000000;fill-opacity:1;stroke-width:0.60785317px"
               d="m 251.13405,1032.4585 h -5.61552 v -2.0183 h 5.61552 z" />
            <path
               inkscape:connector-curvature="0"
               id="path4612"
               style="font-style:normal;font-variant:normal;font-weight:normal;font-stretch:normal;font-family:'Estrangelo Edessa';-inkscape-font-specification:'Estrangelo Edessa';fill:#000000;fill-opacity:1;stroke-width:0.60785317px"
               d="m 265.04818,1032.1617 q -0.27306,-0.024 -0.60548,-0.036 -0.33242,-0.012 -0.70045,-0.012 -0.79544,0 -1.30594,0.1424 -0.5105,0.1425 -0.8073,0.3799 -0.29681,0.2375 -0.41553,0.5343 -0.11872,0.2968 -0.11872,0.6173 0,0.6055 0.35616,0.9854 0.36804,0.3799 1.02101,0.3799 0.66484,0 1.35342,-0.2968 0.68858,-0.2968 1.22283,-0.7954 z m 2.19635,4.6894 q -0.43927,0 -0.77169,-0.095 -0.33242,-0.083 -0.56987,-0.2375 -0.23744,-0.1662 -0.40365,-0.3918 -0.15434,-0.2255 -0.24931,-0.5105 -0.56987,0.5224 -1.34155,0.8786 -0.77169,0.3561 -1.84018,0.3561 -0.83105,0 -1.46028,-0.2255 -0.61735,-0.2256 -1.03287,-0.6292 -0.40365,-0.4037 -0.61735,-0.9379 -0.20183,-0.5462 -0.20183,-1.1873 0,-1.5908 1.21096,-2.4337 1.22283,-0.8548 3.60913,-0.8548 0.35616,0 0.70045,0.024 0.35617,0.012 0.77169,0.048 0,-1.0804 -0.45114,-1.6502 -0.45114,-0.5818 -1.48402,-0.5818 -0.73607,0 -1.50776,0.19 -0.75981,0.1781 -1.50776,0.4867 v -1.7689 q 0.65297,-0.3087 1.48402,-0.4868 0.84292,-0.178 1.62648,-0.178 1.00913,0 1.78082,0.2018 0.77169,0.1899 1.29406,0.653 0.52238,0.4511 0.78356,1.199 0.27306,0.748 0.27306,1.8402 v 3.7635 q 0,0.4274 0.2137,0.6292 0.22557,0.2018 0.46301,0.2018 0.23745,0 0.43927,-0.012 0.20183,-0.024 0.46302,-0.083 v 1.3653 q -0.29681,0.2137 -0.73608,0.3205 -0.42739,0.1068 -0.93789,0.1068 z" />
            <path
               inkscape:connector-curvature="0"
               id="path4614"
               style="font-style:normal;font-variant:normal;font-weight:normal;font-stretch:normal;font-family:'Estrangelo Edessa';-inkscape-font-specification:'Estrangelo Edessa';fill:#000000;fill-opacity:1;stroke-width:0.60785317px"
               d="m 273.82169,1026.8904 h 2.22009 v 1.5553 h -2.22009 v 8.1918 h -2.27945 v -8.1918 h -1.80457 v -1.5553 h 1.80457 v -2.137 q 0,-1.8045 0.87854,-2.7424 0.89041,-0.9379 2.42191,-0.9379 0.27306,0 0.61735,0.059 0.34429,0.059 0.58174,0.1425 v 1.8639 q -0.10685,-0.024 -0.26119,-0.047 -0.15434,-0.036 -0.32055,-0.047 -0.15434,-0.024 -0.2968,-0.036 -0.14247,-0.012 -0.24932,-0.012 -0.47488,0 -0.78356,0.3799 -0.30867,0.3799 -0.30867,1.1991 z" />
            <path
               inkscape:connector-curvature="0"
               id="path4616"
               style="font-style:normal;font-variant:normal;font-weight:normal;font-stretch:normal;font-family:'Estrangelo Edessa';-inkscape-font-specification:'Estrangelo Edessa';fill:#000000;fill-opacity:1;stroke-width:0.60785317px"
               d="m 283.73492,1036.4238 q -0.40365,0.2137 -0.97351,0.3205 -0.56987,0.1068 -1.18722,0.1068 -1.43652,0 -2.05388,-0.7835 -0.61735,-0.7836 -0.61735,-2.3982 v -5.2237 h -1.8283 v -1.5553 h 1.89954 q 0.20182,-0.6292 0.40365,-1.3059 0.2137,-0.6886 0.39178,-1.2941 h 1.41278 v 2.6 h 2.71872 v 1.5553 h -2.71872 v 5.568 q 0,0.5105 0.26119,0.8311 0.26119,0.3086 0.75982,0.3086 0.43927,0 0.81917,-0.036 0.37991,-0.047 0.71233,-0.1068 z" />
            <path
               inkscape:connector-curvature="0"
               id="path4618"
               style="font-style:normal;font-variant:normal;font-weight:normal;font-stretch:normal;font-family:'Estrangelo Edessa';-inkscape-font-specification:'Estrangelo Edessa';fill:#000000;fill-opacity:1;stroke-width:0.60785317px"
               d="m 290.73948,1028.4457 q -1.13973,0 -1.86393,0.5817 -0.71233,0.5699 -0.94977,1.674 h 5.15251 q -0.0594,-1.1041 -0.66484,-1.674 -0.60548,-0.5817 -1.67397,-0.5817 z m -5.08128,3.2529 q 0,-1.1278 0.36804,-2.0538 0.36804,-0.9379 1.03287,-1.5909 0.67672,-0.6648 1.61461,-1.021 0.9379,-0.368 2.0895,-0.368 1.12785,0 1.97077,0.3324 0.8548,0.3205 1.43653,0.926 0.58174,0.6055 0.86667,1.484 0.2968,0.8786 0.2968,1.9827 v 0.9735 h -7.4557 q 0.0594,0.6055 0.30868,1.1278 0.26118,0.5105 0.68858,0.8786 0.43927,0.368 1.021,0.5817 0.59361,0.2018 1.30594,0.2018 0.41552,0 0.87854,-0.071 0.47488,-0.083 0.96164,-0.2256 0.49863,-0.1543 0.98539,-0.368 0.49863,-0.2137 0.94977,-0.4986 v 1.7927 q -0.90229,0.5105 -1.91142,0.7954 -0.99726,0.273 -2.27945,0.273 -1.18721,0 -2.13698,-0.3442 -0.94977,-0.3562 -1.61461,-1.021 -0.66484,-0.6649 -1.021,-1.6147 -0.35617,-0.9616 -0.35617,-2.1726 z" />
            <path
               inkscape:connector-curvature="0"
               id="path4620"
               style="font-style:normal;font-variant:normal;font-weight:normal;font-stretch:normal;font-family:'Estrangelo Edessa';-inkscape-font-specification:'Estrangelo Edessa';fill:#000000;fill-opacity:1;stroke-width:0.60785317px"
               d="m 302.39792,1026.6649 q 0.40365,0 0.77169,0.095 0.3799,0.083 0.75981,0.2256 v 1.8521 q -0.40365,-0.095 -0.85479,-0.1306 -0.45114,-0.047 -0.85479,-0.047 -0.45115,0 -0.77169,0.2018 -0.30868,0.19 -0.49863,0.5224 -0.18996,0.3205 -0.27306,0.7598 -0.0831,0.4274 -0.0831,0.9023 v 5.5918 h -2.27945 v -6.4704 q 0,-0.4392 -0.0356,-0.926 -0.0356,-0.4867 -0.095,-0.9379 -0.0475,-0.4511 -0.11872,-0.8192 -0.0594,-0.3799 -0.11872,-0.5936 h 1.92328 q 0.0594,0.1069 0.11872,0.2968 0.0594,0.1781 0.10685,0.4037 0.0594,0.2137 0.10685,0.463 0.0475,0.2493 0.0712,0.4868 0.17808,-0.2968 0.3799,-0.6174 0.20183,-0.3324 0.46302,-0.6055 0.26118,-0.2849 0.56986,-0.463 0.32055,-0.1899 0.71233,-0.1899 z" />
            <path
               inkscape:connector-curvature="0"
               id="path4622"
               style="font-style:normal;font-variant:normal;font-weight:normal;font-stretch:normal;font-family:'Estrangelo Edessa';-inkscape-font-specification:'Estrangelo Edessa';fill:#000000;fill-opacity:1;stroke-width:0.60785317px"
               d="m 320.12301,1036.6375 h -2.29132 v -6.0311 q 0,-1.0329 -0.4274,-1.579 -0.41552,-0.558 -1.27032,-0.558 -0.41552,0 -0.79543,0.1069 -0.36804,0.095 -0.68858,0.2612 -0.32055,0.1662 -0.58174,0.368 -0.26118,0.2018 -0.46301,0.4036 v 7.0284 h -2.27945 v -15.3626 h 2.27945 v 4.9507 q 0,0.1425 -0.0119,0.3443 0,0.2018 -0.0119,0.4274 0,0.2137 -0.0119,0.4274 0,0.2018 -0.0119,0.368 0.24932,-0.2137 0.58174,-0.4155 0.33242,-0.2018 0.7242,-0.3562 0.39178,-0.1662 0.81917,-0.2612 0.43927,-0.095 0.89041,-0.095 1.81644,0 2.6831,0.9972 0.86667,0.9973 0.86667,2.8493 z" />
            <path
               inkscape:connector-curvature="0"
               id="path4624"
               style="font-style:normal;font-variant:normal;font-weight:normal;font-stretch:normal;font-family:'Estrangelo Edessa';-inkscape-font-specification:'Estrangelo Edessa';fill:#000000;fill-opacity:1;stroke-width:0.60785317px"
               d="m 330.89103,1031.7224 q 0,-1.6146 -0.71233,-2.4338 -0.71233,-0.8192 -2.07762,-0.8192 -1.37717,0 -2.14886,0.8429 -0.77169,0.843 -0.77169,2.4576 0,0.7717 0.20183,1.389 0.20182,0.6055 0.58173,1.0329 0.37991,0.4155 0.91416,0.6411 0.54611,0.2256 1.22283,0.2256 1.36529,0 2.07762,-0.8548 0.71233,-0.8548 0.71233,-2.4813 z m 2.29132,0 q 0,1.1516 -0.36804,2.1014 -0.36803,0.9497 -1.04475,1.6264 -0.67671,0.6649 -1.65022,1.0329 -0.96165,0.368 -2.1726,0.368 -1.16347,0 -2.11324,-0.3561 -0.9379,-0.3562 -1.60274,-0.9973 -0.66484,-0.6529 -1.03288,-1.579 -0.35616,-0.926 -0.35616,-2.0657 0,-1.2228 0.36804,-2.1845 0.36803,-0.9616 1.05662,-1.6265 0.70045,-0.6767 1.68584,-1.021 0.99726,-0.3561 2.24383,-0.3561 1.19909,0 2.12511,0.3443 0.92603,0.3442 1.55525,0.9972 0.6411,0.653 0.97352,1.5909 0.33242,0.9379 0.33242,2.1251 z" />
            <path
               inkscape:connector-curvature="0"
               id="path4626"
               style="font-style:normal;font-variant:normal;font-weight:normal;font-stretch:normal;font-family:'Estrangelo Edessa';-inkscape-font-specification:'Estrangelo Edessa';fill:#000000;fill-opacity:1;stroke-width:0.60785317px"
               d="m 335.93669,1026.8904 h 2.29132 v 6.0311 q 0,1.021 0.41553,1.579 0.42739,0.558 1.28219,0.558 0.37991,0 0.73607,-0.095 0.36804,-0.095 0.68858,-0.2493 0.32055,-0.1662 0.59361,-0.3562 0.28493,-0.2018 0.5105,-0.4155 v -7.0521 h 2.29132 v 9.7471 h -2.22008 l -0.0712,-0.9736 q -0.24931,0.2256 -0.55799,0.4393 -0.30867,0.2137 -0.68858,0.3799 -0.36804,0.1662 -0.80731,0.2612 -0.42739,0.1068 -0.91415,0.1068 -1.81644,0 -2.6831,-0.9616 -0.86667,-0.9735 -0.86667,-2.8256 z" />
            <path
               inkscape:connector-curvature="0"
               id="path4628"
               style="font-style:normal;font-variant:normal;font-weight:normal;font-stretch:normal;font-family:'Estrangelo Edessa';-inkscape-font-specification:'Estrangelo Edessa';fill:#000000;fill-opacity:1;stroke-width:0.60785317px"
               d="m 352.49831,1026.6649 q 0.40365,0 0.77168,0.095 0.37991,0.083 0.75982,0.2256 v 1.8521 q -0.40365,-0.095 -0.85479,-0.1306 -0.45114,-0.047 -0.8548,-0.047 -0.45114,0 -0.77169,0.2018 -0.30867,0.19 -0.49862,0.5224 -0.18996,0.3205 -0.27306,0.7598 -0.0831,0.4274 -0.0831,0.9023 v 5.5918 h -2.27945 v -6.4704 q 0,-0.4392 -0.0356,-0.926 -0.0356,-0.4867 -0.095,-0.9379 -0.0475,-0.4511 -0.11872,-0.8192 -0.0594,-0.3799 -0.11872,-0.5936 h 1.92328 q 0.0594,0.1069 0.11872,0.2968 0.0594,0.1781 0.10685,0.4037 0.0594,0.2137 0.10685,0.463 0.0475,0.2493 0.0712,0.4868 0.17809,-0.2968 0.37991,-0.6174 0.20183,-0.3324 0.46301,-0.6055 0.26119,-0.2849 0.56987,-0.463 0.32054,-0.1899 0.71233,-0.1899 z" />
            <path
               inkscape:connector-curvature="0"
               id="path4630"
               style="font-style:normal;font-variant:normal;font-weight:normal;font-stretch:normal;font-family:'Estrangelo Edessa';-inkscape-font-specification:'Estrangelo Edessa';fill:#000000;fill-opacity:1;stroke-width:0.60785317px"
               d="m 362.15035,1033.895 q 0,0.6292 -0.22557,1.1753 -0.2137,0.5343 -0.66484,0.9379 -0.43927,0.3918 -1.11598,0.6174 -0.66484,0.2255 -1.56712,0.2255 -0.87854,0 -1.6621,-0.2136 -0.78356,-0.2256 -1.32968,-0.6293 v -1.9707 q 0.30868,0.2137 0.67671,0.4155 0.37991,0.2018 0.77169,0.3561 0.39178,0.1425 0.77169,0.2375 0.37991,0.083 0.70045,0.083 0.77169,0 1.12786,-0.3324 0.35616,-0.3324 0.35616,-0.8073 0,-0.2493 -0.0712,-0.4393 -0.0712,-0.2018 -0.27306,-0.368 -0.18996,-0.1781 -0.54612,-0.3443 -0.34429,-0.1662 -0.89041,-0.3562 -0.74794,-0.2731 -1.25845,-0.5699 -0.49862,-0.3086 -0.8073,-0.6648 -0.2968,-0.368 -0.4274,-0.7836 -0.13059,-0.4274 -0.13059,-0.926 0,-0.6411 0.27306,-1.1635 0.28493,-0.5342 0.75982,-0.9141 0.48675,-0.3799 1.12785,-0.5817 0.65297,-0.2137 1.38904,-0.2137 0.66484,0 1.30593,0.1306 0.6411,0.1305 1.24658,0.4511 v 1.7808 q -0.58174,-0.2612 -1.23471,-0.4274 -0.64109,-0.1781 -1.27031,-0.1781 -0.73608,0 -1.11598,0.3087 -0.36804,0.3087 -0.36804,0.7836 0,0.2018 0.0712,0.3799 0.0831,0.1781 0.27306,0.3443 0.18996,0.1662 0.52237,0.3443 0.33242,0.1662 0.84293,0.3443 0.71232,0.2493 1.22283,0.5342 0.52237,0.2731 0.85479,0.6174 0.34429,0.3442 0.49863,0.7954 0.16621,0.4393 0.16621,1.021 z" />
            <path
               inkscape:connector-curvature="0"
               id="path4632"
               style="font-style:normal;font-variant:normal;font-weight:normal;font-stretch:normal;font-family:'Estrangelo Edessa';-inkscape-font-specification:'Estrangelo Edessa';fill:#000000;fill-opacity:1;stroke-width:0.60785317px"
               d="m 375.68459,1033.895 q 0,0.6292 -0.22557,1.1753 -0.2137,0.5343 -0.66484,0.9379 -0.43927,0.3918 -1.11598,0.6174 -0.66484,0.2255 -1.56712,0.2255 -0.87854,0 -1.6621,-0.2136 -0.78356,-0.2256 -1.32968,-0.6293 v -1.9707 q 0.30868,0.2137 0.67671,0.4155 0.37991,0.2018 0.77169,0.3561 0.39178,0.1425 0.77169,0.2375 0.37991,0.083 0.70046,0.083 0.77168,0 1.12785,-0.3324 0.35616,-0.3324 0.35616,-0.8073 0,-0.2493 -0.0712,-0.4393 -0.0712,-0.2018 -0.27306,-0.368 -0.18995,-0.1781 -0.54612,-0.3443 -0.34429,-0.1662 -0.89041,-0.3562 -0.74794,-0.2731 -1.25844,-0.5699 -0.49863,-0.3086 -0.80731,-0.6648 -0.2968,-0.368 -0.4274,-0.7836 -0.13059,-0.4274 -0.13059,-0.926 0,-0.6411 0.27306,-1.1635 0.28493,-0.5342 0.75982,-0.9141 0.48675,-0.3799 1.12785,-0.5817 0.65297,-0.2137 1.38904,-0.2137 0.66484,0 1.30593,0.1306 0.6411,0.1305 1.24658,0.4511 v 1.7808 q -0.58174,-0.2612 -1.23471,-0.4274 -0.64109,-0.1781 -1.27031,-0.1781 -0.73608,0 -1.11598,0.3087 -0.36804,0.3087 -0.36804,0.7836 0,0.2018 0.0712,0.3799 0.0831,0.1781 0.27306,0.3443 0.18996,0.1662 0.52238,0.3443 0.33242,0.1662 0.84292,0.3443 0.71233,0.2493 1.22283,0.5342 0.52237,0.2731 0.85479,0.6174 0.34429,0.3442 0.49863,0.7954 0.16621,0.4393 0.16621,1.021 z" />
            <path
               inkscape:connector-curvature="0"
               id="path4634"
               style="font-style:normal;font-variant:normal;font-weight:normal;font-stretch:normal;font-family:'Estrangelo Edessa';-inkscape-font-specification:'Estrangelo Edessa';fill:#000000;fill-opacity:1;stroke-width:0.60785317px"
               d="m 382.81974,1028.4457 q -1.13973,0 -1.86393,0.5817 -0.71233,0.5699 -0.94977,1.674 h 5.15251 q -0.0594,-1.1041 -0.66484,-1.674 -0.60548,-0.5817 -1.67397,-0.5817 z m -5.08128,3.2529 q 0,-1.1278 0.36804,-2.0538 0.36804,-0.9379 1.03288,-1.5909 0.67671,-0.6648 1.61461,-1.021 0.93789,-0.368 2.08949,-0.368 1.12785,0 1.97078,0.3324 0.85479,0.3205 1.43652,0.926 0.58174,0.6055 0.86667,1.484 0.2968,0.8786 0.2968,1.9827 v 0.9735 h -7.4557 q 0.0594,0.6055 0.30868,1.1278 0.26119,0.5105 0.68858,0.8786 0.43927,0.368 1.02101,0.5817 0.5936,0.2018 1.30593,0.2018 0.41552,0 0.87854,-0.071 0.47488,-0.083 0.96164,-0.2256 0.49863,-0.1543 0.98539,-0.368 0.49863,-0.2137 0.94977,-0.4986 v 1.7927 q -0.90228,0.5105 -1.91142,0.7954 -0.99725,0.273 -2.27944,0.273 -1.18722,0 -2.13699,-0.3442 -0.94977,-0.3562 -1.61461,-1.021 -0.66484,-0.6649 -1.021,-1.6147 -0.35617,-0.9616 -0.35617,-2.1726 z" />
            <path
               inkscape:connector-curvature="0"
               id="path4636"
               style="font-style:normal;font-variant:normal;font-weight:normal;font-stretch:normal;font-family:'Estrangelo Edessa';-inkscape-font-specification:'Estrangelo Edessa';fill:#000000;fill-opacity:1;stroke-width:0.60785317px"
               d="m 396.15213,1033.895 q 0,0.6292 -0.22557,1.1753 -0.21369,0.5343 -0.66484,0.9379 -0.43926,0.3918 -1.11598,0.6174 -0.66484,0.2255 -1.56712,0.2255 -0.87854,0 -1.6621,-0.2136 -0.78356,-0.2256 -1.32967,-0.6293 v -1.9707 q 0.30867,0.2137 0.67671,0.4155 0.3799,0.2018 0.77169,0.3561 0.39178,0.1425 0.77168,0.2375 0.37991,0.083 0.70046,0.083 0.77169,0 1.12785,-0.3324 0.35617,-0.3324 0.35617,-0.8073 0,-0.2493 -0.0712,-0.4393 -0.0712,-0.2018 -0.27306,-0.368 -0.18995,-0.1781 -0.54611,-0.3443 -0.3443,-0.1662 -0.89041,-0.3562 -0.74795,-0.2731 -1.25845,-0.5699 -0.49863,-0.3086 -0.8073,-0.6648 -0.29681,-0.368 -0.4274,-0.7836 -0.13059,-0.4274 -0.13059,-0.926 0,-0.6411 0.27305,-1.1635 0.28494,-0.5342 0.75982,-0.9141 0.48676,-0.3799 1.12785,-0.5817 0.65297,-0.2137 1.38904,-0.2137 0.66484,0 1.30594,0.1306 0.64109,0.1305 1.24657,0.4511 v 1.7808 q -0.58173,-0.2612 -1.2347,-0.4274 -0.6411,-0.1781 -1.27032,-0.1781 -0.73607,0 -1.11598,0.3087 -0.36804,0.3087 -0.36804,0.7836 0,0.2018 0.0712,0.3799 0.0831,0.1781 0.27306,0.3443 0.18995,0.1662 0.52237,0.3443 0.33242,0.1662 0.84292,0.3443 0.71233,0.2493 1.22283,0.5342 0.52238,0.2731 0.85479,0.6174 0.3443,0.3442 0.49863,0.7954 0.16621,0.4393 0.16621,1.021 z" />
            <path
               inkscape:connector-curvature="0"
               id="path4638"
               style="font-style:normal;font-variant:normal;font-weight:normal;font-stretch:normal;font-family:'Estrangelo Edessa';-inkscape-font-specification:'Estrangelo Edessa';fill:#000000;fill-opacity:1;stroke-width:0.60785317px"
               d="m 404.65259,1033.895 q 0,0.6292 -0.22557,1.1753 -0.2137,0.5343 -0.66484,0.9379 -0.43927,0.3918 -1.11598,0.6174 -0.66484,0.2255 -1.56712,0.2255 -0.87854,0 -1.6621,-0.2136 -0.78356,-0.2256 -1.32968,-0.6293 v -1.9707 q 0.30868,0.2137 0.67671,0.4155 0.37991,0.2018 0.77169,0.3561 0.39178,0.1425 0.77169,0.2375 0.37991,0.083 0.70046,0.083 0.77169,0 1.12785,-0.3324 0.35616,-0.3324 0.35616,-0.8073 0,-0.2493 -0.0712,-0.4393 -0.0712,-0.2018 -0.27306,-0.368 -0.18995,-0.1781 -0.54612,-0.3443 -0.34429,-0.1662 -0.89041,-0.3562 -0.74794,-0.2731 -1.25844,-0.5699 -0.49863,-0.3086 -0.80731,-0.6648 -0.2968,-0.368 -0.42739,-0.7836 -0.1306,-0.4274 -0.1306,-0.926 0,-0.6411 0.27306,-1.1635 0.28493,-0.5342 0.75982,-0.9141 0.48676,-0.3799 1.12785,-0.5817 0.65297,-0.2137 1.38904,-0.2137 0.66484,0 1.30593,0.1306 0.6411,0.1305 1.24658,0.4511 v 1.7808 q -0.58174,-0.2612 -1.2347,-0.4274 -0.6411,-0.1781 -1.27032,-0.1781 -0.73607,0 -1.11598,0.3087 -0.36804,0.3087 -0.36804,0.7836 0,0.2018 0.0712,0.3799 0.0831,0.1781 0.27305,0.3443 0.18996,0.1662 0.52238,0.3443 0.33242,0.1662 0.84292,0.3443 0.71233,0.2493 1.22283,0.5342 0.52237,0.2731 0.85479,0.6174 0.34429,0.3442 0.49863,0.7954 0.16621,0.4393 0.16621,1.021 z" />
            <path
               inkscape:connector-curvature="0"
               id="path4640"
               style="font-style:normal;font-variant:normal;font-weight:normal;font-stretch:normal;font-family:'Estrangelo Edessa';-inkscape-font-specification:'Estrangelo Edessa';fill:#000000;fill-opacity:1;stroke-width:0.60785317px"
               d="m 409.99505,1024.1124 q 0,0.2849 -0.11872,0.5105 -0.11873,0.2255 -0.32055,0.3917 -0.18996,0.1544 -0.45114,0.2375 -0.26119,0.083 -0.54612,0.083 -0.59361,0 -1.00913,-0.3087 -0.40365,-0.3205 -0.40365,-0.9141 0,-0.5699 0.40365,-0.8905 0.41552,-0.3205 1.00913,-0.3205 0.28493,0 0.54612,0.083 0.26118,0.083 0.45114,0.2493 0.20182,0.1544 0.32055,0.3799 0.11872,0.2137 0.11872,0.4987 z m -0.32055,12.5251 h -2.27945 v -9.7471 h 2.27945 z" />
            <path
               inkscape:connector-curvature="0"
               id="path4642"
               style="font-style:normal;font-variant:normal;font-weight:normal;font-stretch:normal;font-family:'Estrangelo Edessa';-inkscape-font-specification:'Estrangelo Edessa';fill:#000000;fill-opacity:1;stroke-width:0.60785317px"
               d="m 420.69184,1031.7224 q 0,-1.6146 -0.71233,-2.4338 -0.71233,-0.8192 -2.07762,-0.8192 -1.37717,0 -2.14886,0.8429 -0.77169,0.843 -0.77169,2.4576 0,0.7717 0.20183,1.389 0.20182,0.6055 0.58173,1.0329 0.37991,0.4155 0.91416,0.6411 0.54612,0.2256 1.22283,0.2256 1.36529,0 2.07762,-0.8548 0.71233,-0.8548 0.71233,-2.4813 z m 2.29132,0 q 0,1.1516 -0.36804,2.1014 -0.36803,0.9497 -1.04474,1.6264 -0.67672,0.6649 -1.65023,1.0329 -0.96164,0.368 -2.1726,0.368 -1.16347,0 -2.11324,-0.3561 -0.9379,-0.3562 -1.60274,-0.9973 -0.66484,-0.6529 -1.03287,-1.579 -0.35617,-0.926 -0.35617,-2.0657 0,-1.2228 0.36804,-2.1845 0.36803,-0.9616 1.05662,-1.6265 0.70045,-0.6767 1.68584,-1.021 0.99726,-0.3561 2.24383,-0.3561 1.19909,0 2.12512,0.3443 0.92602,0.3442 1.55525,0.9972 0.64109,0.653 0.97351,1.5909 0.33242,0.9379 0.33242,2.1251 z" />
            <path
               inkscape:connector-curvature="0"
               id="path4644"
               style="font-style:normal;font-variant:normal;font-weight:normal;font-stretch:normal;font-family:'Estrangelo Edessa';-inkscape-font-specification:'Estrangelo Edessa';fill:#000000;fill-opacity:1;stroke-width:0.60785317px"
               d="M 434.76032,1036.6375 H 432.469 v -6.0311 q 0,-1.0329 -0.42739,-1.579 -0.41553,-0.558 -1.27032,-0.558 -0.37991,0 -0.74795,0.095 -0.35616,0.095 -0.67671,0.2612 -0.32055,0.1543 -0.60548,0.3562 -0.27306,0.1899 -0.49863,0.4036 v 7.0521 h -2.27945 v -9.7471 h 2.20822 l 0.0712,0.9735 q 0.24932,-0.2374 0.55799,-0.4511 0.30868,-0.2137 0.67672,-0.3799 0.3799,-0.1662 0.8073,-0.2612 0.43927,-0.1068 0.92603,-0.1068 1.81643,0 2.6831,0.9735 0.86666,0.9735 0.86666,2.8255 z" />
            <path
               inkscape:connector-curvature="0"
               id="path4646"
               style="font-style:normal;font-variant:normal;font-weight:normal;font-stretch:normal;font-family:'Estrangelo Edessa';-inkscape-font-specification:'Estrangelo Edessa';fill:#000000;fill-opacity:1;stroke-width:0.60785317px"
               d="m 443.9731,1033.895 q 0,0.6292 -0.22557,1.1753 -0.2137,0.5343 -0.66484,0.9379 -0.43927,0.3918 -1.11598,0.6174 -0.66484,0.2255 -1.56712,0.2255 -0.87854,0 -1.6621,-0.2136 -0.78356,-0.2256 -1.32968,-0.6293 v -1.9707 q 0.30868,0.2137 0.67672,0.4155 0.3799,0.2018 0.77168,0.3561 0.39178,0.1425 0.77169,0.2375 0.37991,0.083 0.70046,0.083 0.77169,0 1.12785,-0.3324 0.35616,-0.3324 0.35616,-0.8073 0,-0.2493 -0.0712,-0.4393 -0.0712,-0.2018 -0.27306,-0.368 -0.18995,-0.1781 -0.54612,-0.3443 -0.34429,-0.1662 -0.89041,-0.3562 -0.74794,-0.2731 -1.25844,-0.5699 -0.49863,-0.3086 -0.80731,-0.6648 -0.2968,-0.368 -0.42739,-0.7836 -0.1306,-0.4274 -0.1306,-0.926 0,-0.6411 0.27306,-1.1635 0.28493,-0.5342 0.75982,-0.9141 0.48676,-0.3799 1.12785,-0.5817 0.65297,-0.2137 1.38904,-0.2137 0.66484,0 1.30594,0.1306 0.64109,0.1305 1.24657,0.4511 v 1.7808 q -0.58173,-0.2612 -1.2347,-0.4274 -0.6411,-0.1781 -1.27032,-0.1781 -0.73607,0 -1.11598,0.3087 -0.36804,0.3087 -0.36804,0.7836 0,0.2018 0.0712,0.3799 0.0831,0.1781 0.27306,0.3443 0.18995,0.1662 0.52237,0.3443 0.33242,0.1662 0.84292,0.3443 0.71233,0.2493 1.22283,0.5342 0.52237,0.2731 0.85479,0.6174 0.3443,0.3442 0.49863,0.7954 0.16621,0.4393 0.16621,1.021 z" />
          </g>
          <g
             transform="matrix(0.83137279,0,0,0.83137279,200.54107,173.1281)"
             id="text4528"
             style="font-style:normal;font-weight:normal;font-size:24.31412697px;line-height:1.25;font-family:sans-serif;letter-spacing:0px;word-spacing:0px;fill:#505050;fill-opacity:1;stroke:none;stroke-width:0.60785317px"
             aria-label="DJ mixxx - after hours sessions">
            <path
               inkscape:connector-curvature="0"
               id="path4542"
               style="font-style:normal;font-variant:normal;font-weight:normal;font-stretch:normal;font-family:'Estrangelo Edessa';-inkscape-font-specification:'Estrangelo Edessa';fill:#505050;fill-opacity:1;stroke-width:0.60785317px"
               d="m 166.04647,1029.5831 q 0,-1.4127 -0.45114,-2.4337 -0.43927,-1.021 -1.27032,-1.6859 -0.81917,-0.6648 -2.01826,-0.9735 -1.18721,-0.3205 -2.6831,-0.3205 h -1.81644 v 11.3972 h 1.60274 q 1.51963,0 2.74246,-0.4155 1.23471,-0.4274 2.10137,-1.1991 0.86667,-0.7836 1.32968,-1.8877 0.46301,-1.116 0.46301,-2.4813 z m 2.41005,-0.024 q 0,1.7927 -0.66484,3.2648 -0.65297,1.4722 -1.84018,2.5288 -1.18722,1.0448 -2.83744,1.6146 -1.65023,0.5699 -3.63288,0.5699 h -4.01278 v -15.3626 h 4.20274 q 2.08949,0 3.71598,0.4749 1.63835,0.463 2.7662,1.4009 1.12785,0.9261 1.70959,2.3151 0.59361,1.3772 0.59361,3.1936 z" />
            <path
               inkscape:connector-curvature="0"
               id="path4544"
               style="font-style:normal;font-variant:normal;font-weight:normal;font-stretch:normal;font-family:'Estrangelo Edessa';-inkscape-font-specification:'Estrangelo Edessa';fill:#505050;fill-opacity:1;stroke-width:0.60785317px"
               d="m 175.93596,1022.1749 v 11.4448 q 0,0.9379 -0.2137,1.7096 -0.20183,0.7598 -0.6411,1.3059 -0.43926,0.5342 -1.1041,0.831 -0.66484,0.285 -1.59087,0.285 -0.58173,0 -1.08036,-0.095 -0.48676,-0.095 -0.89041,-0.2612 v -1.9708 q 0.40365,0.1662 0.87853,0.2731 0.47489,0.095 0.80731,0.095 0.43927,0 0.7242,-0.1544 0.2968,-0.1543 0.47489,-0.4511 0.17808,-0.2968 0.24931,-0.7242 0.0831,-0.4393 0.0831,-1.0091 v -11.2786 z" />
            <path
               inkscape:connector-curvature="0"
               id="path4546"
               style="font-style:normal;font-variant:normal;font-weight:normal;font-stretch:normal;font-family:'Estrangelo Edessa';-inkscape-font-specification:'Estrangelo Edessa';fill:#505050;fill-opacity:1;stroke-width:0.60785317px"
               d="m 193.35238,1037.5375 h -2.29132 v -6.0311 q 0,-1.0328 -0.40366,-1.579 -0.39178,-0.558 -1.19908,-0.558 -0.36804,0 -0.7242,0.1188 -0.35617,0.1068 -0.67671,0.273 -0.30868,0.1662 -0.56987,0.3681 -0.26118,0.1899 -0.43926,0.3561 v 7.0521 h -2.27945 v -9.747 h 2.20821 l 0.0475,0.9735 q 0.24932,-0.2137 0.55799,-0.4274 0.30868,-0.2256 0.67671,-0.3918 0.36804,-0.1662 0.77169,-0.2731 0.41553,-0.1068 0.86667,-0.1068 1.10411,0 1.84018,0.4274 0.74794,0.4274 1.12785,1.1753 0.2968,-0.2849 0.66484,-0.5698 0.37991,-0.2968 0.8073,-0.5224 0.4274,-0.2256 0.89041,-0.368 0.47489,-0.1425 0.96165,-0.1425 1.75707,0 2.58812,1.021 0.84292,1.0091 0.84292,2.8493 v 6.1023 h -2.29132 v -6.0311 q 0,-1.0328 -0.40365,-1.579 -0.39178,-0.558 -1.17534,-0.558 -0.40365,0 -0.78356,0.1306 -0.36804,0.1306 -0.68859,0.3206 -0.32054,0.1899 -0.58173,0.4155 -0.24932,0.2256 -0.40365,0.4155 0.0237,0.1306 0.0356,0.3799 0.0238,0.2375 0.0238,0.4037 z" />
            <path
               inkscape:connector-curvature="0"
               id="path4548"
               style="font-style:normal;font-variant:normal;font-weight:normal;font-stretch:normal;font-family:'Estrangelo Edessa';-inkscape-font-specification:'Estrangelo Edessa';fill:#505050;fill-opacity:1;stroke-width:0.60785317px"
               d="m 205.79437,1025.0124 q 0,0.2849 -0.11872,0.5105 -0.11872,0.2255 -0.32055,0.3918 -0.18995,0.1543 -0.45114,0.2374 -0.26119,0.083 -0.54612,0.083 -0.5936,0 -1.00913,-0.3087 -0.40365,-0.3205 -0.40365,-0.9141 0,-0.5699 0.40365,-0.8904 0.41553,-0.3206 1.00913,-0.3206 0.28493,0 0.54612,0.083 0.26119,0.083 0.45114,0.2493 0.20183,0.1544 0.32055,0.3799 0.11872,0.2137 0.11872,0.4987 z m -0.32055,12.5251 h -2.27945 v -9.747 h 2.27945 z" />
            <path
               inkscape:connector-curvature="0"
               id="path4550"
               style="font-style:normal;font-variant:normal;font-weight:normal;font-stretch:normal;font-family:'Estrangelo Edessa';-inkscape-font-specification:'Estrangelo Edessa';fill:#505050;fill-opacity:1;stroke-width:0.60785317px"
               d="m 217.55965,1027.7905 -3.621,4.7607 q 0.4274,0.5698 0.89041,1.2109 0.47489,0.6293 0.94977,1.2822 0.47489,0.653 0.9379,1.2941 0.47489,0.6292 0.89041,1.1991 h -2.52876 l -2.16073,-3.158 q -0.0712,-0.1187 -0.18995,-0.2968 -0.11873,-0.19 -0.17809,-0.2612 -0.0594,0.071 -0.17808,0.2612 -0.10685,0.1781 -0.17808,0.2968 l -2.22009,3.158 h -2.48127 l 3.77533,-4.9151 q -0.41552,-0.5698 -0.86666,-1.1872 -0.45114,-0.6174 -0.90228,-1.2347 -0.45114,-0.6292 -0.90229,-1.2347 -0.43926,-0.6055 -0.85479,-1.1753 h 2.52876 l 1.89955,2.8374 q 0.0356,0.059 0.095,0.1662 0.0712,0.1069 0.14247,0.2256 0.0712,0.1068 0.13059,0.2255 0.0594,0.1069 0.095,0.1663 0.0356,-0.071 0.095,-0.1781 0.0712,-0.1187 0.14246,-0.2375 0.0712,-0.1187 0.1306,-0.2137 0.0712,-0.1068 0.10684,-0.1543 0.53425,-0.7479 0.99726,-1.4247 0.47489,-0.6767 1.02101,-1.4127 z" />
            <path
               inkscape:connector-curvature="0"
               id="path4552"
               style="font-style:normal;font-variant:normal;font-weight:normal;font-stretch:normal;font-family:'Estrangelo Edessa';-inkscape-font-specification:'Estrangelo Edessa';fill:#505050;fill-opacity:1;stroke-width:0.60785317px"
               d="m 228.1021,1027.7905 -3.621,4.7607 q 0.4274,0.5698 0.89041,1.2109 0.47489,0.6293 0.94977,1.2822 0.47489,0.653 0.9379,1.2941 0.47489,0.6292 0.89041,1.1991 h -2.52876 l -2.16073,-3.158 q -0.0712,-0.1187 -0.18995,-0.2968 -0.11873,-0.19 -0.17809,-0.2612 -0.0594,0.071 -0.17808,0.2612 -0.10685,0.1781 -0.17808,0.2968 l -2.22009,3.158 h -2.48127 l 3.77533,-4.9151 q -0.41552,-0.5698 -0.86666,-1.1872 -0.45114,-0.6174 -0.90228,-1.2347 -0.45114,-0.6292 -0.90229,-1.2347 -0.43926,-0.6055 -0.85479,-1.1753 h 2.52876 l 1.89955,2.8374 q 0.0356,0.059 0.095,0.1662 0.0712,0.1069 0.14247,0.2256 0.0712,0.1068 0.13059,0.2255 0.0594,0.1069 0.095,0.1663 0.0356,-0.071 0.095,-0.1781 0.0712,-0.1187 0.14246,-0.2375 0.0712,-0.1187 0.1306,-0.2137 0.0712,-0.1068 0.10684,-0.1543 0.53425,-0.7479 0.99726,-1.4247 0.47489,-0.6767 1.02101,-1.4127 z" />
            <path
               inkscape:connector-curvature="0"
               id="path4554"
               style="font-style:normal;font-variant:normal;font-weight:normal;font-stretch:normal;font-family:'Estrangelo Edessa';-inkscape-font-specification:'Estrangelo Edessa';fill:#505050;fill-opacity:1;stroke-width:0.60785317px"
               d="m 238.64456,1027.7905 -3.621,4.7607 q 0.4274,0.5698 0.89041,1.2109 0.47489,0.6293 0.94977,1.2822 0.47489,0.653 0.9379,1.2941 0.47489,0.6292 0.89041,1.1991 h -2.52876 l -2.16073,-3.158 q -0.0712,-0.1187 -0.18996,-0.2968 -0.11872,-0.19 -0.17808,-0.2612 -0.0594,0.071 -0.17808,0.2612 -0.10685,0.1781 -0.17808,0.2968 l -2.22009,3.158 h -2.48128 l 3.77534,-4.9151 q -0.41552,-0.5698 -0.86666,-1.1872 -0.45115,-0.6174 -0.90229,-1.2347 -0.45114,-0.6292 -0.90228,-1.2347 -0.43927,-0.6055 -0.85479,-1.1753 h 2.52876 l 1.89954,2.8374 q 0.0356,0.059 0.095,0.1662 0.0712,0.1069 0.14247,0.2256 0.0712,0.1068 0.13059,0.2255 0.0594,0.1069 0.095,0.1663 0.0356,-0.071 0.095,-0.1781 0.0712,-0.1187 0.14247,-0.2375 0.0712,-0.1187 0.13059,-0.2137 0.0712,-0.1068 0.10685,-0.1543 0.53425,-0.7479 0.99726,-1.4247 0.47489,-0.6767 1.021,-1.4127 z" />
            <path
               inkscape:connector-curvature="0"
               id="path4556"
               style="font-style:normal;font-variant:normal;font-weight:normal;font-stretch:normal;font-family:'Estrangelo Edessa';-inkscape-font-specification:'Estrangelo Edessa';fill:#505050;fill-opacity:1;stroke-width:0.60785317px"
               d="m 251.13405,1033.3585 h -5.61552 v -2.0183 h 5.61552 z" />
            <path
               inkscape:connector-curvature="0"
               id="path4558"
               style="font-style:normal;font-variant:normal;font-weight:normal;font-stretch:normal;font-family:'Estrangelo Edessa';-inkscape-font-specification:'Estrangelo Edessa';fill:#505050;fill-opacity:1;stroke-width:0.60785317px"
               d="m 265.04818,1033.0617 q -0.27306,-0.024 -0.60548,-0.036 -0.33242,-0.012 -0.70045,-0.012 -0.79544,0 -1.30594,0.1425 -0.5105,0.1424 -0.8073,0.3799 -0.29681,0.2374 -0.41553,0.5342 -0.11872,0.2968 -0.11872,0.6174 0,0.6054 0.35616,0.9854 0.36804,0.3799 1.02101,0.3799 0.66484,0 1.35342,-0.2968 0.68858,-0.2968 1.22283,-0.7955 z m 2.19635,4.6895 q -0.43927,0 -0.77169,-0.095 -0.33242,-0.083 -0.56987,-0.2374 -0.23744,-0.1663 -0.40365,-0.3918 -0.15434,-0.2256 -0.24931,-0.5105 -0.56987,0.5223 -1.34155,0.8785 -0.77169,0.3562 -1.84018,0.3562 -0.83105,0 -1.46028,-0.2256 -0.61735,-0.2256 -1.03287,-0.6292 -0.40365,-0.4037 -0.61735,-0.9379 -0.20183,-0.5461 -0.20183,-1.1872 0,-1.5909 1.21096,-2.4338 1.22283,-0.8548 3.60913,-0.8548 0.35616,0 0.70045,0.024 0.35617,0.012 0.77169,0.048 0,-1.0803 -0.45114,-1.6502 -0.45114,-0.5817 -1.48402,-0.5817 -0.73607,0 -1.50776,0.1899 -0.75981,0.1781 -1.50776,0.4868 v -1.769 q 0.65297,-0.3087 1.48402,-0.4867 0.84292,-0.1781 1.62648,-0.1781 1.00913,0 1.78082,0.2018 0.77169,0.19 1.29406,0.653 0.52238,0.4511 0.78356,1.1991 0.27306,0.7479 0.27306,1.8401 v 3.7635 q 0,0.4274 0.2137,0.6292 0.22557,0.2019 0.46301,0.2019 0.23745,0 0.43927,-0.012 0.20183,-0.024 0.46302,-0.083 v 1.3653 q -0.29681,0.2137 -0.73608,0.3205 -0.42739,0.1069 -0.93789,0.1069 z" />
            <path
               inkscape:connector-curvature="0"
               id="path4560"
               style="font-style:normal;font-variant:normal;font-weight:normal;font-stretch:normal;font-family:'Estrangelo Edessa';-inkscape-font-specification:'Estrangelo Edessa';fill:#505050;fill-opacity:1;stroke-width:0.60785317px"
               d="m 273.82169,1027.7905 h 2.22009 v 1.5552 h -2.22009 v 8.1918 h -2.27945 v -8.1918 h -1.80457 v -1.5552 h 1.80457 v -2.137 q 0,-1.8046 0.87854,-2.7425 0.89041,-0.9379 2.42191,-0.9379 0.27306,0 0.61735,0.059 0.34429,0.059 0.58174,0.1424 v 1.864 q -0.10685,-0.024 -0.26119,-0.048 -0.15434,-0.036 -0.32055,-0.048 -0.15434,-0.024 -0.2968,-0.036 -0.14247,-0.012 -0.24932,-0.012 -0.47488,0 -0.78356,0.3799 -0.30867,0.3799 -0.30867,1.1991 z" />
            <path
               inkscape:connector-curvature="0"
               id="path4562"
               style="font-style:normal;font-variant:normal;font-weight:normal;font-stretch:normal;font-family:'Estrangelo Edessa';-inkscape-font-specification:'Estrangelo Edessa';fill:#505050;fill-opacity:1;stroke-width:0.60785317px"
               d="m 283.73492,1037.3238 q -0.40365,0.2137 -0.97351,0.3205 -0.56987,0.1069 -1.18722,0.1069 -1.43652,0 -2.05388,-0.7836 -0.61735,-0.7835 -0.61735,-2.3982 v -5.2237 h -1.8283 v -1.5552 h 1.89954 q 0.20182,-0.6293 0.40365,-1.306 0.2137,-0.6886 0.39178,-1.294 h 1.41278 v 2.6 h 2.71872 v 1.5552 h -2.71872 v 5.568 q 0,0.5105 0.26119,0.8311 0.26119,0.3087 0.75982,0.3087 0.43927,0 0.81917,-0.036 0.37991,-0.047 0.71233,-0.1068 z" />
            <path
               inkscape:connector-curvature="0"
               id="path4564"
               style="font-style:normal;font-variant:normal;font-weight:normal;font-stretch:normal;font-family:'Estrangelo Edessa';-inkscape-font-specification:'Estrangelo Edessa';fill:#505050;fill-opacity:1;stroke-width:0.60785317px"
               d="m 290.73948,1029.3457 q -1.13973,0 -1.86393,0.5817 -0.71233,0.5699 -0.94977,1.674 h 5.15251 q -0.0594,-1.1041 -0.66484,-1.674 -0.60548,-0.5817 -1.67397,-0.5817 z m -5.08128,3.253 q 0,-1.1279 0.36804,-2.0539 0.36804,-0.9379 1.03287,-1.5909 0.67672,-0.6648 1.61461,-1.021 0.9379,-0.368 2.0895,-0.368 1.12785,0 1.97077,0.3324 0.8548,0.3206 1.43653,0.926 0.58174,0.6055 0.86667,1.484 0.2968,0.8786 0.2968,1.9827 v 0.9735 h -7.4557 q 0.0594,0.6055 0.30868,1.1279 0.26118,0.5105 0.68858,0.8785 0.43927,0.368 1.021,0.5817 0.59361,0.2019 1.30594,0.2019 0.41552,0 0.87854,-0.071 0.47488,-0.083 0.96164,-0.2255 0.49863,-0.1544 0.98539,-0.3681 0.49863,-0.2137 0.94977,-0.4986 v 1.7927 q -0.90229,0.5105 -1.91142,0.7954 -0.99726,0.2731 -2.27945,0.2731 -1.18721,0 -2.13698,-0.3443 -0.94977,-0.3562 -1.61461,-1.021 -0.66484,-0.6649 -1.021,-1.6146 -0.35617,-0.9617 -0.35617,-2.1726 z" />
            <path
               inkscape:connector-curvature="0"
               id="path4566"
               style="font-style:normal;font-variant:normal;font-weight:normal;font-stretch:normal;font-family:'Estrangelo Edessa';-inkscape-font-specification:'Estrangelo Edessa';fill:#505050;fill-opacity:1;stroke-width:0.60785317px"
               d="m 302.39792,1027.5649 q 0.40365,0 0.77169,0.095 0.3799,0.083 0.75981,0.2255 v 1.8521 q -0.40365,-0.095 -0.85479,-0.1306 -0.45114,-0.047 -0.85479,-0.047 -0.45115,0 -0.77169,0.2018 -0.30868,0.19 -0.49863,0.5224 -0.18996,0.3206 -0.27306,0.7598 -0.0831,0.4274 -0.0831,0.9023 v 5.5918 h -2.27945 v -6.4703 q 0,-0.4393 -0.0356,-0.9261 -0.0356,-0.4867 -0.095,-0.9379 -0.0475,-0.4511 -0.11872,-0.8191 -0.0594,-0.3799 -0.11872,-0.5936 h 1.92328 q 0.0594,0.1068 0.11872,0.2968 0.0594,0.178 0.10685,0.4036 0.0594,0.2137 0.10685,0.463 0.0475,0.2493 0.0712,0.4868 0.17808,-0.2968 0.3799,-0.6174 0.20183,-0.3324 0.46302,-0.6054 0.26118,-0.285 0.56986,-0.4631 0.32055,-0.1899 0.71233,-0.1899 z" />
            <path
               inkscape:connector-curvature="0"
               id="path4568"
               style="font-style:normal;font-variant:normal;font-weight:normal;font-stretch:normal;font-family:'Estrangelo Edessa';-inkscape-font-specification:'Estrangelo Edessa';fill:#505050;fill-opacity:1;stroke-width:0.60785317px"
               d="m 320.12301,1037.5375 h -2.29132 v -6.0311 q 0,-1.0328 -0.4274,-1.579 -0.41552,-0.558 -1.27032,-0.558 -0.41552,0 -0.79543,0.1069 -0.36804,0.095 -0.68858,0.2612 -0.32055,0.1662 -0.58174,0.368 -0.26118,0.2018 -0.46301,0.4037 v 7.0283 h -2.27945 v -15.3626 h 2.27945 v 4.9507 q 0,0.1425 -0.0119,0.3443 0,0.2018 -0.0119,0.4274 0,0.2137 -0.0119,0.4274 0,0.2018 -0.0119,0.368 0.24932,-0.2137 0.58174,-0.4155 0.33242,-0.2018 0.7242,-0.3562 0.39178,-0.1662 0.81917,-0.2611 0.43927,-0.095 0.89041,-0.095 1.81644,0 2.6831,0.9972 0.86667,0.9973 0.86667,2.8494 z" />
            <path
               inkscape:connector-curvature="0"
               id="path4570"
               style="font-style:normal;font-variant:normal;font-weight:normal;font-stretch:normal;font-family:'Estrangelo Edessa';-inkscape-font-specification:'Estrangelo Edessa';fill:#505050;fill-opacity:1;stroke-width:0.60785317px"
               d="m 330.89103,1032.6224 q 0,-1.6146 -0.71233,-2.4338 -0.71233,-0.8192 -2.07762,-0.8192 -1.37717,0 -2.14886,0.843 -0.77169,0.8429 -0.77169,2.4575 0,0.7717 0.20183,1.389 0.20182,0.6055 0.58173,1.0329 0.37991,0.4155 0.91416,0.6411 0.54611,0.2256 1.22283,0.2256 1.36529,0 2.07762,-0.8548 0.71233,-0.8548 0.71233,-2.4813 z m 2.29132,0 q 0,1.1516 -0.36804,2.1014 -0.36803,0.9498 -1.04475,1.6265 -0.67671,0.6648 -1.65022,1.0328 -0.96165,0.3681 -2.1726,0.3681 -1.16347,0 -2.11324,-0.3562 -0.9379,-0.3562 -1.60274,-0.9972 -0.66484,-0.653 -1.03288,-1.579 -0.35616,-0.9261 -0.35616,-2.0658 0,-1.2228 0.36804,-2.1845 0.36803,-0.9616 1.05662,-1.6264 0.70045,-0.6768 1.68584,-1.0211 0.99726,-0.3561 2.24383,-0.3561 1.19909,0 2.12511,0.3443 0.92603,0.3443 1.55525,0.9972 0.6411,0.653 0.97352,1.5909 0.33242,0.9379 0.33242,2.1251 z" />
            <path
               inkscape:connector-curvature="0"
               id="path4572"
               style="font-style:normal;font-variant:normal;font-weight:normal;font-stretch:normal;font-family:'Estrangelo Edessa';-inkscape-font-specification:'Estrangelo Edessa';fill:#505050;fill-opacity:1;stroke-width:0.60785317px"
               d="m 335.93669,1027.7905 h 2.29132 v 6.031 q 0,1.021 0.41553,1.579 0.42739,0.558 1.28219,0.558 0.37991,0 0.73607,-0.095 0.36804,-0.095 0.68858,-0.2493 0.32055,-0.1662 0.59361,-0.3562 0.28493,-0.2018 0.5105,-0.4155 v -7.052 h 2.29132 v 9.747 h -2.22008 l -0.0712,-0.9735 q -0.24931,0.2255 -0.55799,0.4392 -0.30867,0.2137 -0.68858,0.3799 -0.36804,0.1662 -0.80731,0.2612 -0.42739,0.1069 -0.91415,0.1069 -1.81644,0 -2.6831,-0.9617 -0.86667,-0.9735 -0.86667,-2.8255 z" />
            <path
               inkscape:connector-curvature="0"
               id="path4574"
               style="font-style:normal;font-variant:normal;font-weight:normal;font-stretch:normal;font-family:'Estrangelo Edessa';-inkscape-font-specification:'Estrangelo Edessa';fill:#505050;fill-opacity:1;stroke-width:0.60785317px"
               d="m 352.49831,1027.5649 q 0.40365,0 0.77168,0.095 0.37991,0.083 0.75982,0.2255 v 1.8521 q -0.40365,-0.095 -0.85479,-0.1306 -0.45114,-0.047 -0.8548,-0.047 -0.45114,0 -0.77169,0.2018 -0.30867,0.19 -0.49862,0.5224 -0.18996,0.3206 -0.27306,0.7598 -0.0831,0.4274 -0.0831,0.9023 v 5.5918 h -2.27945 v -6.4703 q 0,-0.4393 -0.0356,-0.9261 -0.0356,-0.4867 -0.095,-0.9379 -0.0475,-0.4511 -0.11872,-0.8191 -0.0594,-0.3799 -0.11872,-0.5936 h 1.92328 q 0.0594,0.1068 0.11872,0.2968 0.0594,0.178 0.10685,0.4036 0.0594,0.2137 0.10685,0.463 0.0475,0.2493 0.0712,0.4868 0.17809,-0.2968 0.37991,-0.6174 0.20183,-0.3324 0.46301,-0.6054 0.26119,-0.285 0.56987,-0.4631 0.32054,-0.1899 0.71233,-0.1899 z" />
            <path
               inkscape:connector-curvature="0"
               id="path4576"
               style="font-style:normal;font-variant:normal;font-weight:normal;font-stretch:normal;font-family:'Estrangelo Edessa';-inkscape-font-specification:'Estrangelo Edessa';fill:#505050;fill-opacity:1;stroke-width:0.60785317px"
               d="m 362.15035,1034.795 q 0,0.6292 -0.22557,1.1754 -0.2137,0.5342 -0.66484,0.9379 -0.43927,0.3917 -1.11598,0.6173 -0.66484,0.2256 -1.56712,0.2256 -0.87854,0 -1.6621,-0.2137 -0.78356,-0.2256 -1.32968,-0.6292 v -1.9708 q 0.30868,0.2137 0.67671,0.4155 0.37991,0.2018 0.77169,0.3562 0.39178,0.1424 0.77169,0.2374 0.37991,0.083 0.70045,0.083 0.77169,0 1.12786,-0.3324 0.35616,-0.3324 0.35616,-0.8073 0,-0.2493 -0.0712,-0.4393 -0.0712,-0.2018 -0.27306,-0.368 -0.18996,-0.1781 -0.54612,-0.3443 -0.34429,-0.1662 -0.89041,-0.3562 -0.74794,-0.273 -1.25845,-0.5698 -0.49862,-0.3087 -0.8073,-0.6649 -0.2968,-0.368 -0.4274,-0.7835 -0.13059,-0.4274 -0.13059,-0.9261 0,-0.6411 0.27306,-1.1634 0.28493,-0.5343 0.75982,-0.9142 0.48675,-0.3799 1.12785,-0.5817 0.65297,-0.2137 1.38904,-0.2137 0.66484,0 1.30593,0.1306 0.6411,0.1306 1.24658,0.4511 v 1.7808 q -0.58174,-0.2611 -1.23471,-0.4274 -0.64109,-0.178 -1.27031,-0.178 -0.73608,0 -1.11598,0.3086 -0.36804,0.3087 -0.36804,0.7836 0,0.2018 0.0712,0.3799 0.0831,0.1781 0.27306,0.3443 0.18996,0.1662 0.52237,0.3443 0.33242,0.1662 0.84293,0.3443 0.71232,0.2493 1.22283,0.5342 0.52237,0.2731 0.85479,0.6174 0.34429,0.3443 0.49863,0.7954 0.16621,0.4393 0.16621,1.021 z" />
            <path
               inkscape:connector-curvature="0"
               id="path4578"
               style="font-style:normal;font-variant:normal;font-weight:normal;font-stretch:normal;font-family:'Estrangelo Edessa';-inkscape-font-specification:'Estrangelo Edessa';fill:#505050;fill-opacity:1;stroke-width:0.60785317px"
               d="m 375.68459,1034.795 q 0,0.6292 -0.22557,1.1754 -0.2137,0.5342 -0.66484,0.9379 -0.43927,0.3917 -1.11598,0.6173 -0.66484,0.2256 -1.56712,0.2256 -0.87854,0 -1.6621,-0.2137 -0.78356,-0.2256 -1.32968,-0.6292 v -1.9708 q 0.30868,0.2137 0.67671,0.4155 0.37991,0.2018 0.77169,0.3562 0.39178,0.1424 0.77169,0.2374 0.37991,0.083 0.70046,0.083 0.77168,0 1.12785,-0.3324 0.35616,-0.3324 0.35616,-0.8073 0,-0.2493 -0.0712,-0.4393 -0.0712,-0.2018 -0.27306,-0.368 -0.18995,-0.1781 -0.54612,-0.3443 -0.34429,-0.1662 -0.89041,-0.3562 -0.74794,-0.273 -1.25844,-0.5698 -0.49863,-0.3087 -0.80731,-0.6649 -0.2968,-0.368 -0.4274,-0.7835 -0.13059,-0.4274 -0.13059,-0.9261 0,-0.6411 0.27306,-1.1634 0.28493,-0.5343 0.75982,-0.9142 0.48675,-0.3799 1.12785,-0.5817 0.65297,-0.2137 1.38904,-0.2137 0.66484,0 1.30593,0.1306 0.6411,0.1306 1.24658,0.4511 v 1.7808 q -0.58174,-0.2611 -1.23471,-0.4274 -0.64109,-0.178 -1.27031,-0.178 -0.73608,0 -1.11598,0.3086 -0.36804,0.3087 -0.36804,0.7836 0,0.2018 0.0712,0.3799 0.0831,0.1781 0.27306,0.3443 0.18996,0.1662 0.52238,0.3443 0.33242,0.1662 0.84292,0.3443 0.71233,0.2493 1.22283,0.5342 0.52237,0.2731 0.85479,0.6174 0.34429,0.3443 0.49863,0.7954 0.16621,0.4393 0.16621,1.021 z" />
            <path
               inkscape:connector-curvature="0"
               id="path4580"
               style="font-style:normal;font-variant:normal;font-weight:normal;font-stretch:normal;font-family:'Estrangelo Edessa';-inkscape-font-specification:'Estrangelo Edessa';fill:#505050;fill-opacity:1;stroke-width:0.60785317px"
               d="m 382.81974,1029.3457 q -1.13973,0 -1.86393,0.5817 -0.71233,0.5699 -0.94977,1.674 h 5.15251 q -0.0594,-1.1041 -0.66484,-1.674 -0.60548,-0.5817 -1.67397,-0.5817 z m -5.08128,3.253 q 0,-1.1279 0.36804,-2.0539 0.36804,-0.9379 1.03288,-1.5909 0.67671,-0.6648 1.61461,-1.021 0.93789,-0.368 2.08949,-0.368 1.12785,0 1.97078,0.3324 0.85479,0.3206 1.43652,0.926 0.58174,0.6055 0.86667,1.484 0.2968,0.8786 0.2968,1.9827 v 0.9735 h -7.4557 q 0.0594,0.6055 0.30868,1.1279 0.26119,0.5105 0.68858,0.8785 0.43927,0.368 1.02101,0.5817 0.5936,0.2019 1.30593,0.2019 0.41552,0 0.87854,-0.071 0.47488,-0.083 0.96164,-0.2255 0.49863,-0.1544 0.98539,-0.3681 0.49863,-0.2137 0.94977,-0.4986 v 1.7927 q -0.90228,0.5105 -1.91142,0.7954 -0.99725,0.2731 -2.27944,0.2731 -1.18722,0 -2.13699,-0.3443 -0.94977,-0.3562 -1.61461,-1.021 -0.66484,-0.6649 -1.021,-1.6146 -0.35617,-0.9617 -0.35617,-2.1726 z" />
            <path
               inkscape:connector-curvature="0"
               id="path4582"
               style="font-style:normal;font-variant:normal;font-weight:normal;font-stretch:normal;font-family:'Estrangelo Edessa';-inkscape-font-specification:'Estrangelo Edessa';fill:#505050;fill-opacity:1;stroke-width:0.60785317px"
               d="m 396.15213,1034.795 q 0,0.6292 -0.22557,1.1754 -0.21369,0.5342 -0.66484,0.9379 -0.43926,0.3917 -1.11598,0.6173 -0.66484,0.2256 -1.56712,0.2256 -0.87854,0 -1.6621,-0.2137 -0.78356,-0.2256 -1.32967,-0.6292 v -1.9708 q 0.30867,0.2137 0.67671,0.4155 0.3799,0.2018 0.77169,0.3562 0.39178,0.1424 0.77168,0.2374 0.37991,0.083 0.70046,0.083 0.77169,0 1.12785,-0.3324 0.35617,-0.3324 0.35617,-0.8073 0,-0.2493 -0.0712,-0.4393 -0.0712,-0.2018 -0.27306,-0.368 -0.18995,-0.1781 -0.54611,-0.3443 -0.3443,-0.1662 -0.89041,-0.3562 -0.74795,-0.273 -1.25845,-0.5698 -0.49863,-0.3087 -0.8073,-0.6649 -0.29681,-0.368 -0.4274,-0.7835 -0.13059,-0.4274 -0.13059,-0.9261 0,-0.6411 0.27305,-1.1634 0.28494,-0.5343 0.75982,-0.9142 0.48676,-0.3799 1.12785,-0.5817 0.65297,-0.2137 1.38904,-0.2137 0.66484,0 1.30594,0.1306 0.64109,0.1306 1.24657,0.4511 v 1.7808 q -0.58173,-0.2611 -1.2347,-0.4274 -0.6411,-0.178 -1.27032,-0.178 -0.73607,0 -1.11598,0.3086 -0.36804,0.3087 -0.36804,0.7836 0,0.2018 0.0712,0.3799 0.0831,0.1781 0.27306,0.3443 0.18995,0.1662 0.52237,0.3443 0.33242,0.1662 0.84292,0.3443 0.71233,0.2493 1.22283,0.5342 0.52238,0.2731 0.85479,0.6174 0.3443,0.3443 0.49863,0.7954 0.16621,0.4393 0.16621,1.021 z" />
            <path
               inkscape:connector-curvature="0"
               id="path4584"
               style="font-style:normal;font-variant:normal;font-weight:normal;font-stretch:normal;font-family:'Estrangelo Edessa';-inkscape-font-specification:'Estrangelo Edessa';fill:#505050;fill-opacity:1;stroke-width:0.60785317px"
               d="m 404.65259,1034.795 q 0,0.6292 -0.22557,1.1754 -0.2137,0.5342 -0.66484,0.9379 -0.43927,0.3917 -1.11598,0.6173 -0.66484,0.2256 -1.56712,0.2256 -0.87854,0 -1.6621,-0.2137 -0.78356,-0.2256 -1.32968,-0.6292 v -1.9708 q 0.30868,0.2137 0.67671,0.4155 0.37991,0.2018 0.77169,0.3562 0.39178,0.1424 0.77169,0.2374 0.37991,0.083 0.70046,0.083 0.77169,0 1.12785,-0.3324 0.35616,-0.3324 0.35616,-0.8073 0,-0.2493 -0.0712,-0.4393 -0.0712,-0.2018 -0.27306,-0.368 -0.18995,-0.1781 -0.54612,-0.3443 -0.34429,-0.1662 -0.89041,-0.3562 -0.74794,-0.273 -1.25844,-0.5698 -0.49863,-0.3087 -0.80731,-0.6649 -0.2968,-0.368 -0.42739,-0.7835 -0.1306,-0.4274 -0.1306,-0.9261 0,-0.6411 0.27306,-1.1634 0.28493,-0.5343 0.75982,-0.9142 0.48676,-0.3799 1.12785,-0.5817 0.65297,-0.2137 1.38904,-0.2137 0.66484,0 1.30593,0.1306 0.6411,0.1306 1.24658,0.4511 v 1.7808 q -0.58174,-0.2611 -1.2347,-0.4274 -0.6411,-0.178 -1.27032,-0.178 -0.73607,0 -1.11598,0.3086 -0.36804,0.3087 -0.36804,0.7836 0,0.2018 0.0712,0.3799 0.0831,0.1781 0.27305,0.3443 0.18996,0.1662 0.52238,0.3443 0.33242,0.1662 0.84292,0.3443 0.71233,0.2493 1.22283,0.5342 0.52237,0.2731 0.85479,0.6174 0.34429,0.3443 0.49863,0.7954 0.16621,0.4393 0.16621,1.021 z" />
            <path
               inkscape:connector-curvature="0"
               id="path4586"
               style="font-style:normal;font-variant:normal;font-weight:normal;font-stretch:normal;font-family:'Estrangelo Edessa';-inkscape-font-specification:'Estrangelo Edessa';fill:#505050;fill-opacity:1;stroke-width:0.60785317px"
               d="m 409.99505,1025.0124 q 0,0.2849 -0.11872,0.5105 -0.11873,0.2255 -0.32055,0.3918 -0.18996,0.1543 -0.45114,0.2374 -0.26119,0.083 -0.54612,0.083 -0.59361,0 -1.00913,-0.3087 -0.40365,-0.3205 -0.40365,-0.9141 0,-0.5699 0.40365,-0.8904 0.41552,-0.3206 1.00913,-0.3206 0.28493,0 0.54612,0.083 0.26118,0.083 0.45114,0.2493 0.20182,0.1544 0.32055,0.3799 0.11872,0.2137 0.11872,0.4987 z m -0.32055,12.5251 h -2.27945 v -9.747 h 2.27945 z" />
            <path
               inkscape:connector-curvature="0"
               id="path4588"
               style="font-style:normal;font-variant:normal;font-weight:normal;font-stretch:normal;font-family:'Estrangelo Edessa';-inkscape-font-specification:'Estrangelo Edessa';fill:#505050;fill-opacity:1;stroke-width:0.60785317px"
               d="m 420.69184,1032.6224 q 0,-1.6146 -0.71233,-2.4338 -0.71233,-0.8192 -2.07762,-0.8192 -1.37717,0 -2.14886,0.843 -0.77169,0.8429 -0.77169,2.4575 0,0.7717 0.20183,1.389 0.20182,0.6055 0.58173,1.0329 0.37991,0.4155 0.91416,0.6411 0.54612,0.2256 1.22283,0.2256 1.36529,0 2.07762,-0.8548 0.71233,-0.8548 0.71233,-2.4813 z m 2.29132,0 q 0,1.1516 -0.36804,2.1014 -0.36803,0.9498 -1.04474,1.6265 -0.67672,0.6648 -1.65023,1.0328 -0.96164,0.3681 -2.1726,0.3681 -1.16347,0 -2.11324,-0.3562 -0.9379,-0.3562 -1.60274,-0.9972 -0.66484,-0.653 -1.03287,-1.579 -0.35617,-0.9261 -0.35617,-2.0658 0,-1.2228 0.36804,-2.1845 0.36803,-0.9616 1.05662,-1.6264 0.70045,-0.6768 1.68584,-1.0211 0.99726,-0.3561 2.24383,-0.3561 1.19909,0 2.12512,0.3443 0.92602,0.3443 1.55525,0.9972 0.64109,0.653 0.97351,1.5909 0.33242,0.9379 0.33242,2.1251 z" />
            <path
               inkscape:connector-curvature="0"
               id="path4590"
               style="font-style:normal;font-variant:normal;font-weight:normal;font-stretch:normal;font-family:'Estrangelo Edessa';-inkscape-font-specification:'Estrangelo Edessa';fill:#505050;fill-opacity:1;stroke-width:0.60785317px"
               d="M 434.76032,1037.5375 H 432.469 v -6.0311 q 0,-1.0328 -0.42739,-1.579 -0.41553,-0.558 -1.27032,-0.558 -0.37991,0 -0.74795,0.095 -0.35616,0.095 -0.67671,0.2612 -0.32055,0.1544 -0.60548,0.3562 -0.27306,0.1899 -0.49863,0.4036 v 7.0521 h -2.27945 v -9.747 h 2.20822 l 0.0712,0.9735 q 0.24932,-0.2375 0.55799,-0.4512 0.30868,-0.2137 0.67672,-0.3799 0.3799,-0.1662 0.8073,-0.2612 0.43927,-0.1068 0.92603,-0.1068 1.81643,0 2.6831,0.9735 0.86666,0.9735 0.86666,2.8256 z" />
            <path
               inkscape:connector-curvature="0"
               id="path4592"
               style="font-style:normal;font-variant:normal;font-weight:normal;font-stretch:normal;font-family:'Estrangelo Edessa';-inkscape-font-specification:'Estrangelo Edessa';fill:#505050;fill-opacity:1;stroke-width:0.60785317px"
               d="m 443.9731,1034.795 q 0,0.6292 -0.22557,1.1754 -0.2137,0.5342 -0.66484,0.9379 -0.43927,0.3917 -1.11598,0.6173 -0.66484,0.2256 -1.56712,0.2256 -0.87854,0 -1.6621,-0.2137 -0.78356,-0.2256 -1.32968,-0.6292 v -1.9708 q 0.30868,0.2137 0.67672,0.4155 0.3799,0.2018 0.77168,0.3562 0.39178,0.1424 0.77169,0.2374 0.37991,0.083 0.70046,0.083 0.77169,0 1.12785,-0.3324 0.35616,-0.3324 0.35616,-0.8073 0,-0.2493 -0.0712,-0.4393 -0.0712,-0.2018 -0.27306,-0.368 -0.18995,-0.1781 -0.54612,-0.3443 -0.34429,-0.1662 -0.89041,-0.3562 -0.74794,-0.273 -1.25844,-0.5698 -0.49863,-0.3087 -0.80731,-0.6649 -0.2968,-0.368 -0.42739,-0.7835 -0.1306,-0.4274 -0.1306,-0.9261 0,-0.6411 0.27306,-1.1634 0.28493,-0.5343 0.75982,-0.9142 0.48676,-0.3799 1.12785,-0.5817 0.65297,-0.2137 1.38904,-0.2137 0.66484,0 1.30594,0.1306 0.64109,0.1306 1.24657,0.4511 v 1.7808 q -0.58173,-0.2611 -1.2347,-0.4274 -0.6411,-0.178 -1.27032,-0.178 -0.73607,0 -1.11598,0.3086 -0.36804,0.3087 -0.36804,0.7836 0,0.2018 0.0712,0.3799 0.0831,0.1781 0.27306,0.3443 0.18995,0.1662 0.52237,0.3443 0.33242,0.1662 0.84292,0.3443 0.71233,0.2493 1.22283,0.5342 0.52237,0.2731 0.85479,0.6174 0.3443,0.3443 0.49863,0.7954 0.16621,0.4393 0.16621,1.021 z" />
          </g>
        </g>
      </g>
    </g>
  </g>
</svg>
