<?xml version="1.0" encoding="UTF-8" standalone="no"?>
<!-- Created with Inkscape (http://www.inkscape.org/) -->

<svg
   xmlns:dc="http://purl.org/dc/elements/1.1/"
   xmlns:cc="http://creativecommons.org/ns#"
   xmlns:rdf="http://www.w3.org/1999/02/22-rdf-syntax-ns#"
   xmlns:svg="http://www.w3.org/2000/svg"
   xmlns="http://www.w3.org/2000/svg"
   xmlns:xlink="http://www.w3.org/1999/xlink"
   xmlns:sodipodi="http://sodipodi.sourceforge.net/DTD/sodipodi-0.dtd"
   xmlns:inkscape="http://www.inkscape.org/namespaces/inkscape"
   width="900"
   height="45"
   viewBox="0 0 900 45"
   id="svg2"
   version="1.1"
   inkscape:version="0.92.1 r15371"
   sodipodi:docname="logo_2.svg">
  <defs
     id="defs4">
    <linearGradient
       inkscape:collect="always"
       id="linearGradient4635">
      <stop
         style="stop-color:#000000;stop-opacity:0.39215687"
         offset="0"
         id="stop4631" />
      <stop
         style="stop-color:#000000;stop-opacity:0"
         offset="1"
         id="stop4633" />
    </linearGradient>
    <pattern
       y="0"
       x="0"
       height="6"
       width="6"
       patternUnits="userSpaceOnUse"
       id="EMFhbasepattern" />
    <radialGradient
       inkscape:collect="always"
       xlink:href="#linearGradient4635"
       id="radialGradient4637"
       cx="322.24402"
       cy="940.37799"
       fx="322.24402"
       fy="940.37799"
       r="123.87885"
       gradientTransform="matrix(2.2425455,0,0,0.16609212,-422.9265,873.6725)"
       gradientUnits="userSpaceOnUse" />
  </defs>
  <sodipodi:namedview
     id="base"
     pagecolor="#ffffff"
     bordercolor="#666666"
     borderopacity="1.0"
     inkscape:pageopacity="0.0"
     inkscape:pageshadow="2"
     inkscape:zoom="1.7583207"
     inkscape:cx="418.47455"
     inkscape:cy="39.67867"
     inkscape:document-units="px"
     inkscape:current-layer="g4183"
     showgrid="false"
     units="px"
     inkscape:window-width="1920"
     inkscape:window-height="1028"
     inkscape:window-x="-8"
     inkscape:window-y="-8"
     inkscape:window-maximized="1"
     objecttolerance="10"
     guidetolerance="9"
     showguides="true"
     inkscape:guide-bbox="true" />
  <metadata
     id="metadata7">
    <rdf:RDF>
      <cc:Work
         rdf:about="">
        <dc:format>image/svg+xml</dc:format>
        <dc:type
           rdf:resource="http://purl.org/dc/dcmitype/StillImage" />
        <dc:title />
        <dc:creator>
          <cc:Agent>
            <dc:title>Jorge Rosa</dc:title>
          </cc:Agent>
        </dc:creator>
        <dc:description>Email: jorge.bigarte@gmail.com
Site:https://sites.google.com/site/jorgerosaportfolio</dc:description>
      </cc:Work>
    </rdf:RDF>
  </metadata>
  <g
     inkscape:label="Layer 1"
     inkscape:groupmode="layer"
     id="layer1"
     transform="translate(0,-1007.3622)">
    <g
       style="font-style:normal;font-variant:normal;font-weight:normal;font-stretch:normal;font-size:13.65747356px;line-height:100%;font-family:'Estrangelo Edessa';-inkscape-font-specification:'Estrangelo Edessa, Normal';text-align:start;letter-spacing:0px;word-spacing:0px;writing-mode:lr-tb;text-anchor:start;fill:#1e1e1e;fill-opacity:1;stroke:none;stroke-width:1px;stroke-linecap:butt;stroke-linejoin:miter;stroke-opacity:1"
       id="text4162">
      <g
         id="g4183"
         transform="translate(0.27924905)">
        <g
           aria-label="DJ mixxx - after hours sessions"
           style="font-style:normal;font-variant:normal;font-weight:normal;font-stretch:normal;font-size:24.31412697px;line-height:1.25;font-family:sans-serif;-inkscape-font-specification:'Estrangelo Edessa, Normal';text-align:start;letter-spacing:0px;word-spacing:0px;writing-mode:lr-tb;text-anchor:start;fill:#f0f0f0;fill-opacity:1;stroke:none;stroke-width:0.60785317px;stroke-linecap:butt;stroke-linejoin:miter;stroke-opacity:1"
           id="text4528-5-3"
           transform="matrix(0.83137279,0,0,0.83137279,273.69382,173.12841)">
          <path
             d="m 193.35238,1038.3375 h -2.29132 v -6.031 q 0,-1.0329 -0.40366,-1.579 -0.39178,-0.558 -1.19908,-0.558 -0.36804,0 -0.7242,0.1187 -0.35617,0.1069 -0.67671,0.2731 -0.30868,0.1662 -0.56987,0.368 -0.26118,0.19 -0.43926,0.3562 v 7.052 h -2.27945 v -9.747 h 2.20821 l 0.0475,0.9735 q 0.24932,-0.2137 0.55799,-0.4274 0.30868,-0.2255 0.67671,-0.3918 0.36804,-0.1662 0.77169,-0.273 0.41553,-0.1069 0.86667,-0.1069 1.10411,0 1.84018,0.4274 0.74794,0.4274 1.12785,1.1754 0.2968,-0.285 0.66484,-0.5699 0.37991,-0.2968 0.8073,-0.5224 0.4274,-0.2255 0.89041,-0.368 0.47489,-0.1425 0.96165,-0.1425 1.75707,0 2.58812,1.021 0.84292,1.0092 0.84292,2.8493 v 6.1023 h -2.29132 v -6.031 q 0,-1.0329 -0.40365,-1.579 -0.39178,-0.558 -1.17534,-0.558 -0.40365,0 -0.78356,0.1306 -0.36804,0.1306 -0.68859,0.3205 -0.32054,0.19 -0.58173,0.4156 -0.24932,0.2255 -0.40365,0.4155 0.0237,0.1306 0.0356,0.3799 0.0238,0.2374 0.0238,0.4036 z"
             style="font-style:normal;font-variant:normal;font-weight:normal;font-stretch:normal;font-family:'Estrangelo Edessa';-inkscape-font-specification:'Estrangelo Edessa';fill:#f0f0f0;fill-opacity:1;stroke-width:0.60785317px"
             id="path4653"
             inkscape:connector-curvature="0" />
          <path
             d="m 205.79437,1025.8124 q 0,0.285 -0.11872,0.5105 -0.11872,0.2256 -0.32055,0.3918 -0.18995,0.1543 -0.45114,0.2374 -0.26119,0.083 -0.54612,0.083 -0.5936,0 -1.00913,-0.3087 -0.40365,-0.3206 -0.40365,-0.9142 0,-0.5698 0.40365,-0.8904 0.41553,-0.3205 1.00913,-0.3205 0.28493,0 0.54612,0.083 0.26119,0.083 0.45114,0.2493 0.20183,0.1543 0.32055,0.3799 0.11872,0.2137 0.11872,0.4986 z m -0.32055,12.5251 h -2.27945 v -9.747 h 2.27945 z"
             style="font-style:normal;font-variant:normal;font-weight:normal;font-stretch:normal;font-family:'Estrangelo Edessa';-inkscape-font-specification:'Estrangelo Edessa';fill:#f0f0f0;fill-opacity:1;stroke-width:0.60785317px"
             id="path4655"
             inkscape:connector-curvature="0" />
          <path
             d="m 217.55965,1028.5905 -3.621,4.7607 q 0.4274,0.5699 0.89041,1.211 0.47489,0.6292 0.94977,1.2822 0.47489,0.6529 0.9379,1.294 0.47489,0.6293 0.89041,1.1991 h -2.52876 l -2.16073,-3.158 q -0.0712,-0.1187 -0.18995,-0.2968 -0.11873,-0.1899 -0.17809,-0.2612 -0.0594,0.071 -0.17808,0.2612 -0.10685,0.1781 -0.17808,0.2968 l -2.22009,3.158 h -2.48127 l 3.77533,-4.915 q -0.41552,-0.5699 -0.86666,-1.1873 -0.45114,-0.6173 -0.90228,-1.2347 -0.45114,-0.6292 -0.90229,-1.2347 -0.43926,-0.6054 -0.85479,-1.1753 h 2.52876 l 1.89955,2.8374 q 0.0356,0.059 0.095,0.1663 0.0712,0.1068 0.14247,0.2255 0.0712,0.1069 0.13059,0.2256 0.0594,0.1068 0.095,0.1662 0.0356,-0.071 0.095,-0.1781 0.0712,-0.1187 0.14246,-0.2374 0.0712,-0.1187 0.1306,-0.2137 0.0712,-0.1069 0.10684,-0.1544 0.53425,-0.7479 0.99726,-1.4246 0.47489,-0.6767 1.02101,-1.4128 z"
             style="font-style:normal;font-variant:normal;font-weight:normal;font-stretch:normal;font-family:'Estrangelo Edessa';-inkscape-font-specification:'Estrangelo Edessa';fill:#f0f0f0;fill-opacity:1;stroke-width:0.60785317px"
             id="path4657"
             inkscape:connector-curvature="0" />
          <path
             d="m 228.1021,1028.5905 -3.621,4.7607 q 0.4274,0.5699 0.89041,1.211 0.47489,0.6292 0.94977,1.2822 0.47489,0.6529 0.9379,1.294 0.47489,0.6293 0.89041,1.1991 h -2.52876 l -2.16073,-3.158 q -0.0712,-0.1187 -0.18995,-0.2968 -0.11873,-0.1899 -0.17809,-0.2612 -0.0594,0.071 -0.17808,0.2612 -0.10685,0.1781 -0.17808,0.2968 l -2.22009,3.158 h -2.48127 l 3.77533,-4.915 q -0.41552,-0.5699 -0.86666,-1.1873 -0.45114,-0.6173 -0.90228,-1.2347 -0.45114,-0.6292 -0.90229,-1.2347 -0.43926,-0.6054 -0.85479,-1.1753 h 2.52876 l 1.89955,2.8374 q 0.0356,0.059 0.095,0.1663 0.0712,0.1068 0.14247,0.2255 0.0712,0.1069 0.13059,0.2256 0.0594,0.1068 0.095,0.1662 0.0356,-0.071 0.095,-0.1781 0.0712,-0.1187 0.14246,-0.2374 0.0712,-0.1187 0.1306,-0.2137 0.0712,-0.1069 0.10684,-0.1544 0.53425,-0.7479 0.99726,-1.4246 0.47489,-0.6767 1.02101,-1.4128 z"
             style="font-style:normal;font-variant:normal;font-weight:normal;font-stretch:normal;font-family:'Estrangelo Edessa';-inkscape-font-specification:'Estrangelo Edessa';fill:#f0f0f0;fill-opacity:1;stroke-width:0.60785317px"
             id="path4659"
             inkscape:connector-curvature="0" />
          <path
             d="m 238.64456,1028.5905 -3.621,4.7607 q 0.4274,0.5699 0.89041,1.211 0.47489,0.6292 0.94977,1.2822 0.47489,0.6529 0.9379,1.294 0.47489,0.6293 0.89041,1.1991 h -2.52876 l -2.16073,-3.158 q -0.0712,-0.1187 -0.18996,-0.2968 -0.11872,-0.1899 -0.17808,-0.2612 -0.0594,0.071 -0.17808,0.2612 -0.10685,0.1781 -0.17808,0.2968 l -2.22009,3.158 h -2.48128 l 3.77534,-4.915 q -0.41552,-0.5699 -0.86666,-1.1873 -0.45115,-0.6173 -0.90229,-1.2347 -0.45114,-0.6292 -0.90228,-1.2347 -0.43927,-0.6054 -0.85479,-1.1753 h 2.52876 l 1.89954,2.8374 q 0.0356,0.059 0.095,0.1663 0.0712,0.1068 0.14247,0.2255 0.0712,0.1069 0.13059,0.2256 0.0594,0.1068 0.095,0.1662 0.0356,-0.071 0.095,-0.1781 0.0712,-0.1187 0.14247,-0.2374 0.0712,-0.1187 0.13059,-0.2137 0.0712,-0.1069 0.10685,-0.1544 0.53425,-0.7479 0.99726,-1.4246 0.47489,-0.6767 1.021,-1.4128 z"
             style="font-style:normal;font-variant:normal;font-weight:normal;font-stretch:normal;font-family:'Estrangelo Edessa';-inkscape-font-specification:'Estrangelo Edessa';fill:#f0f0f0;fill-opacity:1;stroke-width:0.60785317px"
             id="path4661"
             inkscape:connector-curvature="0" />
        </g>
        <g
           aria-label="DJ mixxx - after hours sessions"
           style="font-style:normal;font-variant:normal;font-weight:normal;font-stretch:normal;font-size:24.31412697px;line-height:1.25;font-family:sans-serif;-inkscape-font-specification:'Estrangelo Edessa, Normal';text-align:start;letter-spacing:0px;word-spacing:0px;writing-mode:lr-tb;text-anchor:start;fill:#000000;fill-opacity:1;stroke:none;stroke-width:0.60785317px;stroke-linecap:butt;stroke-linejoin:miter;stroke-opacity:1"
           id="text4528-5"
           transform="matrix(0.83137279,0,0,0.83137279,273.69382,173.12791)">
          <path
             d="m 193.35238,1036.6375 h -2.29132 v -6.0311 q 0,-1.0329 -0.40366,-1.579 -0.39178,-0.558 -1.19908,-0.558 -0.36804,0 -0.7242,0.1187 -0.35617,0.1069 -0.67671,0.2731 -0.30868,0.1662 -0.56987,0.368 -0.26118,0.19 -0.43926,0.3562 v 7.0521 h -2.27945 v -9.7471 h 2.20821 l 0.0475,0.9735 q 0.24932,-0.2137 0.55799,-0.4274 0.30868,-0.2255 0.67671,-0.3917 0.36804,-0.1662 0.77169,-0.2731 0.41553,-0.1068 0.86667,-0.1068 1.10411,0 1.84018,0.4274 0.74794,0.4274 1.12785,1.1753 0.2968,-0.2849 0.66484,-0.5699 0.37991,-0.2968 0.8073,-0.5223 0.4274,-0.2256 0.89041,-0.3681 0.47489,-0.1424 0.96165,-0.1424 1.75707,0 2.58812,1.021 0.84292,1.0091 0.84292,2.8493 v 6.1023 h -2.29132 v -6.0311 q 0,-1.0329 -0.40365,-1.579 -0.39178,-0.558 -1.17534,-0.558 -0.40365,0 -0.78356,0.1306 -0.36804,0.1306 -0.68859,0.3206 -0.32054,0.1899 -0.58173,0.4155 -0.24932,0.2256 -0.40365,0.4155 0.0237,0.1306 0.0356,0.3799 0.0238,0.2375 0.0238,0.4037 z"
             style="font-style:normal;font-variant:normal;font-weight:normal;font-stretch:normal;font-family:'Estrangelo Edessa';-inkscape-font-specification:'Estrangelo Edessa';fill:#000000;fill-opacity:1;stroke-width:0.60785317px"
             id="path4600"
             inkscape:connector-curvature="0" />
          <path
             d="m 205.79437,1024.1124 q 0,0.2849 -0.11872,0.5105 -0.11872,0.2255 -0.32055,0.3917 -0.18995,0.1544 -0.45114,0.2375 -0.26119,0.083 -0.54612,0.083 -0.5936,0 -1.00913,-0.3087 -0.40365,-0.3205 -0.40365,-0.9141 0,-0.5699 0.40365,-0.8905 0.41553,-0.3205 1.00913,-0.3205 0.28493,0 0.54612,0.083 0.26119,0.083 0.45114,0.2493 0.20183,0.1544 0.32055,0.3799 0.11872,0.2137 0.11872,0.4987 z m -0.32055,12.5251 h -2.27945 v -9.7471 h 2.27945 z"
             style="font-style:normal;font-variant:normal;font-weight:normal;font-stretch:normal;font-family:'Estrangelo Edessa';-inkscape-font-specification:'Estrangelo Edessa';fill:#000000;fill-opacity:1;stroke-width:0.60785317px"
             id="path4602"
             inkscape:connector-curvature="0" />
          <path
             d="m 217.55965,1026.8904 -3.621,4.7608 q 0.4274,0.5698 0.89041,1.2109 0.47489,0.6292 0.94977,1.2822 0.47489,0.653 0.9379,1.2941 0.47489,0.6292 0.89041,1.1991 h -2.52876 l -2.16073,-3.158 q -0.0712,-0.1188 -0.18995,-0.2968 -0.11873,-0.19 -0.17809,-0.2612 -0.0594,0.071 -0.17808,0.2612 -0.10685,0.178 -0.17808,0.2968 l -2.22009,3.158 h -2.48127 l 3.77533,-4.9151 q -0.41552,-0.5699 -0.86666,-1.1872 -0.45114,-0.6174 -0.90228,-1.2347 -0.45114,-0.6292 -0.90229,-1.2347 -0.43926,-0.6055 -0.85479,-1.1754 h 2.52876 l 1.89955,2.8375 q 0.0356,0.059 0.095,0.1662 0.0712,0.1068 0.14247,0.2256 0.0712,0.1068 0.13059,0.2255 0.0594,0.1069 0.095,0.1662 0.0356,-0.071 0.095,-0.1781 0.0712,-0.1187 0.14246,-0.2374 0.0712,-0.1187 0.1306,-0.2137 0.0712,-0.1068 0.10684,-0.1543 0.53425,-0.748 0.99726,-1.4247 0.47489,-0.6767 1.02101,-1.4128 z"
             style="font-style:normal;font-variant:normal;font-weight:normal;font-stretch:normal;font-family:'Estrangelo Edessa';-inkscape-font-specification:'Estrangelo Edessa';fill:#000000;fill-opacity:1;stroke-width:0.60785317px"
             id="path4604"
             inkscape:connector-curvature="0" />
          <path
             d="m 228.1021,1026.8904 -3.621,4.7608 q 0.4274,0.5698 0.89041,1.2109 0.47489,0.6292 0.94977,1.2822 0.47489,0.653 0.9379,1.2941 0.47489,0.6292 0.89041,1.1991 h -2.52876 l -2.16073,-3.158 q -0.0712,-0.1188 -0.18995,-0.2968 -0.11873,-0.19 -0.17809,-0.2612 -0.0594,0.071 -0.17808,0.2612 -0.10685,0.178 -0.17808,0.2968 l -2.22009,3.158 h -2.48127 l 3.77533,-4.9151 q -0.41552,-0.5699 -0.86666,-1.1872 -0.45114,-0.6174 -0.90228,-1.2347 -0.45114,-0.6292 -0.90229,-1.2347 -0.43926,-0.6055 -0.85479,-1.1754 h 2.52876 l 1.89955,2.8375 q 0.0356,0.059 0.095,0.1662 0.0712,0.1068 0.14247,0.2256 0.0712,0.1068 0.13059,0.2255 0.0594,0.1069 0.095,0.1662 0.0356,-0.071 0.095,-0.1781 0.0712,-0.1187 0.14246,-0.2374 0.0712,-0.1187 0.1306,-0.2137 0.0712,-0.1068 0.10684,-0.1543 0.53425,-0.748 0.99726,-1.4247 0.47489,-0.6767 1.02101,-1.4128 z"
             style="font-style:normal;font-variant:normal;font-weight:normal;font-stretch:normal;font-family:'Estrangelo Edessa';-inkscape-font-specification:'Estrangelo Edessa';fill:#000000;fill-opacity:1;stroke-width:0.60785317px"
             id="path4606"
             inkscape:connector-curvature="0" />
          <path
             d="m 238.64456,1026.8904 -3.621,4.7608 q 0.4274,0.5698 0.89041,1.2109 0.47489,0.6292 0.94977,1.2822 0.47489,0.653 0.9379,1.2941 0.47489,0.6292 0.89041,1.1991 h -2.52876 l -2.16073,-3.158 q -0.0712,-0.1188 -0.18996,-0.2968 -0.11872,-0.19 -0.17808,-0.2612 -0.0594,0.071 -0.17808,0.2612 -0.10685,0.178 -0.17808,0.2968 l -2.22009,3.158 h -2.48128 l 3.77534,-4.9151 q -0.41552,-0.5699 -0.86666,-1.1872 -0.45115,-0.6174 -0.90229,-1.2347 -0.45114,-0.6292 -0.90228,-1.2347 -0.43927,-0.6055 -0.85479,-1.1754 h 2.52876 l 1.89954,2.8375 q 0.0356,0.059 0.095,0.1662 0.0712,0.1068 0.14247,0.2256 0.0712,0.1068 0.13059,0.2255 0.0594,0.1069 0.095,0.1662 0.0356,-0.071 0.095,-0.1781 0.0712,-0.1187 0.14247,-0.2374 0.0712,-0.1187 0.13059,-0.2137 0.0712,-0.1068 0.10685,-0.1543 0.53425,-0.748 0.99726,-1.4247 0.47489,-0.6767 1.021,-1.4128 z"
             style="font-style:normal;font-variant:normal;font-weight:normal;font-stretch:normal;font-family:'Estrangelo Edessa';-inkscape-font-specification:'Estrangelo Edessa';fill:#000000;fill-opacity:1;stroke-width:0.60785317px"
             id="path4608"
             inkscape:connector-curvature="0" />
        </g>
        <g
           aria-label="DJ mixxx - after hours sessions"
           style="font-style:normal;font-weight:normal;font-size:24.31412697px;line-height:1.25;font-family:sans-serif;letter-spacing:0px;word-spacing:0px;fill:#505050;fill-opacity:1;stroke:none;stroke-width:0.60785317px"
           id="text4528"
           transform="matrix(0.83137279,0,0,0.83137279,273.69382,173.1281)">
          <path
             d="m 193.35238,1037.5375 h -2.29132 v -6.0311 q 0,-1.0328 -0.40366,-1.579 -0.39178,-0.558 -1.19908,-0.558 -0.36804,0 -0.7242,0.1188 -0.35617,0.1068 -0.67671,0.273 -0.30868,0.1662 -0.56987,0.3681 -0.26118,0.1899 -0.43926,0.3561 v 7.0521 h -2.27945 v -9.747 h 2.20821 l 0.0475,0.9735 q 0.24932,-0.2137 0.55799,-0.4274 0.30868,-0.2256 0.67671,-0.3918 0.36804,-0.1662 0.77169,-0.2731 0.41553,-0.1068 0.86667,-0.1068 1.10411,0 1.84018,0.4274 0.74794,0.4274 1.12785,1.1753 0.2968,-0.2849 0.66484,-0.5698 0.37991,-0.2968 0.8073,-0.5224 0.4274,-0.2256 0.89041,-0.368 0.47489,-0.1425 0.96165,-0.1425 1.75707,0 2.58812,1.021 0.84292,1.0091 0.84292,2.8493 v 6.1023 h -2.29132 v -6.0311 q 0,-1.0328 -0.40365,-1.579 -0.39178,-0.558 -1.17534,-0.558 -0.40365,0 -0.78356,0.1306 -0.36804,0.1306 -0.68859,0.3206 -0.32054,0.1899 -0.58173,0.4155 -0.24932,0.2256 -0.40365,0.4155 0.0237,0.1306 0.0356,0.3799 0.0238,0.2375 0.0238,0.4037 z"
             style="font-style:normal;font-variant:normal;font-weight:normal;font-stretch:normal;font-family:'Estrangelo Edessa';-inkscape-font-specification:'Estrangelo Edessa';fill:#505050;fill-opacity:1;stroke-width:0.60785317px"
             id="path4546"
             inkscape:connector-curvature="0" />
          <path
             d="m 205.79437,1025.0124 q 0,0.2849 -0.11872,0.5105 -0.11872,0.2255 -0.32055,0.3918 -0.18995,0.1543 -0.45114,0.2374 -0.26119,0.083 -0.54612,0.083 -0.5936,0 -1.00913,-0.3087 -0.40365,-0.3205 -0.40365,-0.9141 0,-0.5699 0.40365,-0.8904 0.41553,-0.3206 1.00913,-0.3206 0.28493,0 0.54612,0.083 0.26119,0.083 0.45114,0.2493 0.20183,0.1544 0.32055,0.3799 0.11872,0.2137 0.11872,0.4987 z m -0.32055,12.5251 h -2.27945 v -9.747 h 2.27945 z"
             style="font-style:normal;font-variant:normal;font-weight:normal;font-stretch:normal;font-family:'Estrangelo Edessa';-inkscape-font-specification:'Estrangelo Edessa';fill:#505050;fill-opacity:1;stroke-width:0.60785317px"
             id="path4548"
             inkscape:connector-curvature="0" />
          <path
             d="m 217.55965,1027.7905 -3.621,4.7607 q 0.4274,0.5698 0.89041,1.2109 0.47489,0.6293 0.94977,1.2822 0.47489,0.653 0.9379,1.2941 0.47489,0.6292 0.89041,1.1991 h -2.52876 l -2.16073,-3.158 q -0.0712,-0.1187 -0.18995,-0.2968 -0.11873,-0.19 -0.17809,-0.2612 -0.0594,0.071 -0.17808,0.2612 -0.10685,0.1781 -0.17808,0.2968 l -2.22009,3.158 h -2.48127 l 3.77533,-4.9151 q -0.41552,-0.5698 -0.86666,-1.1872 -0.45114,-0.6174 -0.90228,-1.2347 -0.45114,-0.6292 -0.90229,-1.2347 -0.43926,-0.6055 -0.85479,-1.1753 h 2.52876 l 1.89955,2.8374 q 0.0356,0.059 0.095,0.1662 0.0712,0.1069 0.14247,0.2256 0.0712,0.1068 0.13059,0.2255 0.0594,0.1069 0.095,0.1663 0.0356,-0.071 0.095,-0.1781 0.0712,-0.1187 0.14246,-0.2375 0.0712,-0.1187 0.1306,-0.2137 0.0712,-0.1068 0.10684,-0.1543 0.53425,-0.7479 0.99726,-1.4247 0.47489,-0.6767 1.02101,-1.4127 z"
             style="font-style:normal;font-variant:normal;font-weight:normal;font-stretch:normal;font-family:'Estrangelo Edessa';-inkscape-font-specification:'Estrangelo Edessa';fill:#505050;fill-opacity:1;stroke-width:0.60785317px"
             id="path4550"
             inkscape:connector-curvature="0" />
          <path
             d="m 228.1021,1027.7905 -3.621,4.7607 q 0.4274,0.5698 0.89041,1.2109 0.47489,0.6293 0.94977,1.2822 0.47489,0.653 0.9379,1.2941 0.47489,0.6292 0.89041,1.1991 h -2.52876 l -2.16073,-3.158 q -0.0712,-0.1187 -0.18995,-0.2968 -0.11873,-0.19 -0.17809,-0.2612 -0.0594,0.071 -0.17808,0.2612 -0.10685,0.1781 -0.17808,0.2968 l -2.22009,3.158 h -2.48127 l 3.77533,-4.9151 q -0.41552,-0.5698 -0.86666,-1.1872 -0.45114,-0.6174 -0.90228,-1.2347 -0.45114,-0.6292 -0.90229,-1.2347 -0.43926,-0.6055 -0.85479,-1.1753 h 2.52876 l 1.89955,2.8374 q 0.0356,0.059 0.095,0.1662 0.0712,0.1069 0.14247,0.2256 0.0712,0.1068 0.13059,0.2255 0.0594,0.1069 0.095,0.1663 0.0356,-0.071 0.095,-0.1781 0.0712,-0.1187 0.14246,-0.2375 0.0712,-0.1187 0.1306,-0.2137 0.0712,-0.1068 0.10684,-0.1543 0.53425,-0.7479 0.99726,-1.4247 0.47489,-0.6767 1.02101,-1.4127 z"
             style="font-style:normal;font-variant:normal;font-weight:normal;font-stretch:normal;font-family:'Estrangelo Edessa';-inkscape-font-specification:'Estrangelo Edessa';fill:#505050;fill-opacity:1;stroke-width:0.60785317px"
             id="path4552"
             inkscape:connector-curvature="0" />
          <path
             d="m 238.64456,1027.7905 -3.621,4.7607 q 0.4274,0.5698 0.89041,1.2109 0.47489,0.6293 0.94977,1.2822 0.47489,0.653 0.9379,1.2941 0.47489,0.6292 0.89041,1.1991 h -2.52876 l -2.16073,-3.158 q -0.0712,-0.1187 -0.18996,-0.2968 -0.11872,-0.19 -0.17808,-0.2612 -0.0594,0.071 -0.17808,0.2612 -0.10685,0.1781 -0.17808,0.2968 l -2.22009,3.158 h -2.48128 l 3.77534,-4.9151 q -0.41552,-0.5698 -0.86666,-1.1872 -0.45115,-0.6174 -0.90229,-1.2347 -0.45114,-0.6292 -0.90228,-1.2347 -0.43927,-0.6055 -0.85479,-1.1753 h 2.52876 l 1.89954,2.8374 q 0.0356,0.059 0.095,0.1662 0.0712,0.1069 0.14247,0.2256 0.0712,0.1068 0.13059,0.2255 0.0594,0.1069 0.095,0.1663 0.0356,-0.071 0.095,-0.1781 0.0712,-0.1187 0.14247,-0.2375 0.0712,-0.1187 0.13059,-0.2137 0.0712,-0.1068 0.10685,-0.1543 0.53425,-0.7479 0.99726,-1.4247 0.47489,-0.6767 1.021,-1.4127 z"
             style="font-style:normal;font-variant:normal;font-weight:normal;font-stretch:normal;font-family:'Estrangelo Edessa';-inkscape-font-specification:'Estrangelo Edessa';fill:#505050;fill-opacity:1;stroke-width:0.60785317px"
             id="path4554"
             inkscape:connector-curvature="0" />
        </g>
      </g>
    </g>
  </g>
</svg>
