<?xml version="1.0" encoding="UTF-8" standalone="no"?>
<!-- Created with Inkscape (http://www.inkscape.org/) -->

<svg
   xmlns:dc="http://purl.org/dc/elements/1.1/"
   xmlns:cc="http://creativecommons.org/ns#"
   xmlns:rdf="http://www.w3.org/1999/02/22-rdf-syntax-ns#"
   xmlns:svg="http://www.w3.org/2000/svg"
   xmlns="http://www.w3.org/2000/svg"
   xmlns:xlink="http://www.w3.org/1999/xlink"
   xmlns:sodipodi="http://sodipodi.sourceforge.net/DTD/sodipodi-0.dtd"
   xmlns:inkscape="http://www.inkscape.org/namespaces/inkscape"
   width="900"
   height="45"
   viewBox="0 0 900 45"
   id="svg2"
   version="1.1"
   inkscape:version="0.92.1 r15371"
   sodipodi:docname="logo_2.svg">
  <defs
     id="defs4">
    <linearGradient
       inkscape:collect="always"
       id="linearGradient4681">
      <stop
         style="stop-color:#131516;stop-opacity:1;"
         offset="0"
         id="stop4677" />
      <stop
         style="stop-color:#131516;stop-opacity:0;"
         offset="1"
         id="stop4679" />
    </linearGradient>
    <linearGradient
       inkscape:collect="always"
       id="linearGradient4635">
      <stop
         style="stop-color:#000000;stop-opacity:0.39215687"
         offset="0"
         id="stop4631" />
      <stop
         style="stop-color:#000000;stop-opacity:0"
         offset="1"
         id="stop4633" />
    </linearGradient>
    <pattern
       y="0"
       x="0"
       height="6"
       width="6"
       patternUnits="userSpaceOnUse"
       id="EMFhbasepattern" />
    <radialGradient
       inkscape:collect="always"
       xlink:href="#linearGradient4635"
       id="radialGradient4637"
       cx="322.24402"
       cy="940.37799"
       fx="322.24402"
       fy="940.37799"
       r="123.87885"
       gradientTransform="matrix(2.2425455,0,0,0.16609212,-422.9265,873.6725)"
       gradientUnits="userSpaceOnUse" />
    <pattern
       id="EMFhbasepattern-5"
       patternUnits="userSpaceOnUse"
       width="6"
       height="6"
       x="0"
       y="0" />
    <style
       id="style6"
       type="text/css">
   
    .str1 {stroke:#131516;stroke-width:3}
    .str0 {stroke:#131516;stroke-width:42}
    .fil0 {fill:none}
    .fil1 {fill:#131516}
   
  </style>
    <radialGradient
       inkscape:collect="always"
       xlink:href="#linearGradient4681"
       id="radialGradient4683"
       cx="450"
       cy="24.673828"
       fx="450"
       fy="24.673828"
       r="271.98633"
       gradientTransform="matrix(1.4411145,0,0,0.06366272,-226.10329,1031.2831)"
       gradientUnits="userSpaceOnUse" />
    <clipPath
       id="clipPath174">
      <path
         id="path176"
         d="m 2,1 13,0 0,32 13,0 0,-16 13,0 0,48 13,0 0,64 -52,0 z" />
    </clipPath>
  </defs>
  <sodipodi:namedview
     id="base"
     pagecolor="#ffffff"
     bordercolor="#666666"
     borderopacity="1.0"
     inkscape:pageopacity="0.0"
     inkscape:pageshadow="2"
     inkscape:zoom="0.87916035"
     inkscape:cx="435.27122"
     inkscape:cy="52.919282"
     inkscape:document-units="px"
     inkscape:current-layer="g4183"
     showgrid="false"
     units="px"
     inkscape:window-width="1386"
     inkscape:window-height="619"
     inkscape:window-x="439"
     inkscape:window-y="75"
     inkscape:window-maximized="0"
     objecttolerance="10"
     guidetolerance="9"
     showguides="true"
     inkscape:guide-bbox="true" />
  <metadata
     id="metadata7">
    <rdf:RDF>
      <cc:Work
         rdf:about="">
        <dc:format>image/svg+xml</dc:format>
        <dc:type
           rdf:resource="http://purl.org/dc/dcmitype/StillImage" />
        <dc:title />
        <dc:creator>
          <cc:Agent>
            <dc:title>Jorge Rosa</dc:title>
          </cc:Agent>
        </dc:creator>
        <dc:description>Email: jorge.bigarte@gmail.com
Site:https://sites.google.com/site/jorgerosaportfolio</dc:description>
      </cc:Work>
    </rdf:RDF>
  </metadata>
  <g
     inkscape:label="Layer 1"
     inkscape:groupmode="layer"
     id="layer1"
     transform="translate(0,-1007.3622)">
    <g
       style="font-style:normal;font-variant:normal;font-weight:normal;font-stretch:normal;font-size:13.65747356px;line-height:100%;font-family:'Estrangelo Edessa';-inkscape-font-specification:'Estrangelo Edessa, Normal';text-align:start;letter-spacing:0px;word-spacing:0px;writing-mode:lr-tb;text-anchor:start;fill:#1e1e1e;fill-opacity:1;stroke:none;stroke-width:1px;stroke-linecap:butt;stroke-linejoin:miter;stroke-opacity:1"
       id="text4162">
      <g
         id="g4183"
         transform="translate(0.27924905)">
        <g
           id="g4519"
           transform="translate(27.322518,1.5930277)">
          <path
             inkscape:connector-curvature="0"
             id="path9"
             d="m 30.434786,1021.1209 v 0.8802 H 814.36168 v -0.8802 z m 0,5.6456 v 0.8819 H 814.36168 v -0.8819 z m 0,5.6456 v 0.8818 H 814.36168 v -0.8818 z m 0,5.6473 v 0.8818 H 814.36168 v -0.8818 z m 0,5.6456 v 0.8818 H 814.36168 v -0.8818 z"
             style="color:#000000;font-style:normal;font-variant:normal;font-weight:normal;font-stretch:normal;font-size:medium;line-height:100%;font-family:'Estrangelo Edessa';-inkscape-font-specification:'Estrangelo Edessa, Normal';font-variant-ligatures:normal;font-variant-position:normal;font-variant-caps:normal;font-variant-numeric:normal;font-variant-alternates:normal;font-feature-settings:normal;text-indent:0;text-align:start;text-decoration:none;text-decoration-line:none;text-decoration-style:solid;text-decoration-color:#000000;letter-spacing:0px;word-spacing:0px;text-transform:none;writing-mode:lr-tb;direction:ltr;text-orientation:mixed;dominant-baseline:auto;baseline-shift:baseline;text-anchor:start;white-space:normal;shape-padding:0;clip-rule:nonzero;display:inline;overflow:visible;visibility:visible;opacity:0.5;isolation:auto;mix-blend-mode:normal;color-interpolation:sRGB;color-interpolation-filters:linearRGB;solid-color:#000000;solid-opacity:1;vector-effect:none;fill:url(#radialGradient4683);fill-opacity:1;fill-rule:evenodd;stroke:none;stroke-width:1.09440565;stroke-linecap:butt;stroke-linejoin:miter;stroke-miterlimit:4;stroke-dasharray:none;stroke-dashoffset:0;stroke-opacity:1;color-rendering:auto;image-rendering:optimizeQuality;shape-rendering:geometricPrecision;text-rendering:geometricPrecision;enable-background:accumulate" />
          <path
             inkscape:connector-curvature="0"
             class="fil1 str1"
             d="m 342.44193,1021.0313 v 14.0443 c 0,0.5208 -0.16681,0.9912 -0.50045,1.4028 -0.33364,0.4199 -0.75902,0.7476 -1.26782,0.9744 -0.51713,0.2268 -1.01759,0.3443 -1.5097,0.3443 -0.46709,0 -0.85911,-0.1259 -1.17607,-0.3696 -0.31695,-0.252 -0.49211,-0.5964 -0.52547,-1.0415 0.0166,-0.4872 0.20018,-0.9492 0.54216,-1.3775 0.34197,-0.4285 0.7757,-0.7729 1.28449,-1.0248 0.5088,-0.2604 1.00925,-0.3865 1.49302,-0.3865 0.49212,0 0.9175,0.1429 1.25948,0.4201 v -12.986 z"
             id="path23"
             style="fill:#131516;fill-opacity:0.58823529;fill-rule:evenodd;stroke:#131516;stroke-width:0.02511075;image-rendering:optimizeQuality;shape-rendering:geometricPrecision;text-rendering:geometricPrecision" />
          <path
             inkscape:connector-curvature="0"
             class="fil1 str1"
             d="m 432.80561,1023.3484 h 0.40037 c 0.10009,0.6384 0.2252,1.1759 0.39202,1.6127 0.15847,0.4284 0.35032,0.7979 0.55884,1.1088 0.21686,0.3108 0.54215,0.7056 0.97588,1.1927 0.43373,0.4872 0.77571,0.8988 1.04261,1.2432 0.80073,1.0331 1.20109,2.1167 1.20109,3.2422 0,1.1592 -0.48377,2.5704 -1.46799,4.2335 h -0.26692 c 0.12512,-0.294 0.27526,-0.6299 0.44208,-1.008 0.15847,-0.3864 0.30027,-0.7307 0.41704,-1.0415 0.10843,-0.3108 0.20018,-0.6216 0.26691,-0.9324 0.0584,-0.3107 0.0917,-0.6132 0.0917,-0.9156 0,-0.4787 -0.0917,-0.9575 -0.28359,-1.4363 -0.19184,-0.4872 -0.46709,-0.9324 -0.80907,-1.344 -0.35032,-0.4116 -0.74234,-0.7391 -1.1844,-0.9995 -0.44207,-0.252 -0.90082,-0.3948 -1.37625,-0.42 v 9.5085 c 0,0.5375 -0.15847,1.0247 -0.49212,1.4448 -0.32529,0.4199 -0.75067,0.7475 -1.26781,0.9743 -0.5088,0.2267 -1.01759,0.3359 -1.52638,0.3359 -0.48377,0 -0.89248,-0.1259 -1.21778,-0.3695 -0.31695,-0.2436 -0.48376,-0.6048 -0.48376,-1.0752 0,-0.4955 0.16681,-0.9575 0.4921,-1.3859 0.3253,-0.42 0.74235,-0.756 1.2428,-0.9996 0.50046,-0.2436 0.98422,-0.3696 1.45132,-0.3696 0.65058,0 1.11768,0.126 1.40127,0.3865 v -8.5846 z"
             id="path25"
             style="fill:#131516;fill-opacity:0.58823529;fill-rule:evenodd;stroke:#131516;stroke-width:0.02511075;image-rendering:optimizeQuality;shape-rendering:geometricPrecision;text-rendering:geometricPrecision" />
          <path
             inkscape:connector-curvature="0"
             class="fil1 str1"
             d="m 375.33232,1034.0173 v -12.986 h 0.43373 c 0.0584,0.6468 0.20019,1.1508 0.43373,1.4952 0.22521,0.3443 0.60054,0.756 1.13436,1.218 0.52547,0.4703 0.93418,0.8987 1.23445,1.2851 0.43373,0.5459 0.75902,1.0751 0.99257,1.5791 0.22521,0.504 0.34198,1.0836 0.34198,1.7471 0,0.5124 -0.0751,1.0416 -0.23355,1.596 0.29194,0.3947 0.43373,1.0164 0.43373,1.8479 0,0.5376 -0.0667,1.0668 -0.20852,1.596 -0.15014,0.5292 -0.35866,0.9911 -0.63391,1.3776 h -0.27525 c 0.52547,-1.0248 0.78404,-1.9236 0.78404,-2.688 0,-1.4615 -0.84243,-2.6207 -2.53563,-3.4775 -0.12511,-0.067 -0.30027,-0.1764 -0.52548,-0.3359 -0.23354,-0.1512 -0.41704,-0.2772 -0.53381,-0.3528 -0.12512,-0.076 -0.25857,-0.1512 -0.40871,-0.2016 v 7.3917 c 0,0.504 -0.16681,0.966 -0.49211,1.3776 -0.33363,0.4115 -0.75068,0.7308 -1.25947,0.966 -0.5088,0.2268 -1.00925,0.3443 -1.50137,0.3443 -0.47543,0 -0.86745,-0.1092 -1.17606,-0.3276 -0.31695,-0.2184 -0.49211,-0.5459 -0.52548,-0.9827 0,-0.4956 0.16682,-0.9659 0.5088,-1.4112 0.34198,-0.4452 0.7757,-0.798 1.29284,-1.0583 0.52548,-0.2604 1.02592,-0.3864 1.51804,-0.3864 0.50879,0 0.90915,0.126 1.20108,0.3864 z m 0.53382,-9.8613 c 0,0.7391 0.19184,1.3775 0.57553,1.9152 0.39202,0.5375 0.94252,1.1507 1.66817,1.8479 0.71732,0.6972 1.16773,1.218 1.35123,1.5708 0.0417,-0.2185 0.0584,-0.4536 0.0584,-0.7057 0,-0.5543 -0.10843,-1.0751 -0.33363,-1.5455 -0.22521,-0.4787 -0.51714,-0.9072 -0.86746,-1.2767 -0.35032,-0.3697 -0.73399,-0.6972 -1.1427,-0.9912 -0.41704,-0.294 -0.85077,-0.5628 -1.30952,-0.8148 z"
             id="path27"
             style="fill:#131516;fill-opacity:0.58823529;fill-rule:evenodd;stroke:#131516;stroke-width:0.02511075;image-rendering:optimizeQuality;shape-rendering:geometricPrecision;text-rendering:geometricPrecision" />
          <path
             inkscape:connector-curvature="0"
             class="fil1 str1"
             d="m 410.92098,1031.0819 v -16.5307 -2.5871 h 0.40036 c 0,0.6552 0.15014,1.1928 0.45875,1.6044 0.30861,0.4032 0.80073,0.9323 1.49302,1.5791 0.6923,0.6468 1.21778,1.2684 1.56809,1.8647 0.35032,0.6048 0.52548,1.3692 0.52548,2.2932 0,0.4451 -0.0584,0.9744 -0.16682,1.5791 0.20018,0.3864 0.30027,0.882 0.30027,1.4784 0,0.5711 -0.10009,1.1088 -0.30027,1.6127 0.21686,0.504 0.33363,1.0415 0.33363,1.596 0,0.5459 -0.11677,1.0415 -0.33363,1.4783 0.25856,0.3948 0.39202,0.9576 0.39202,1.6799 0,1.0248 -0.25023,2.0664 -0.75068,3.1415 h -0.30027 c 0.45875,-1.3103 0.68395,-2.3267 0.68395,-3.0407 0,-0.5459 -0.10009,-0.9827 -0.30027,-1.3271 -0.20852,-0.3444 -0.44207,-0.6132 -0.70064,-0.798 -0.25856,-0.1848 -0.70897,-0.4704 -1.35122,-0.8567 -0.64225,-0.3864 -1.1427,-0.7308 -1.51804,-1.0332 l -0.0334,7.3582 c 0,0.5543 -0.16682,1.0415 -0.49211,1.4699 -0.33363,0.4283 -0.75068,0.7476 -1.25948,0.9744 -0.50879,0.2268 -1.00925,0.3443 -1.50135,0.3443 -0.50046,0 -0.90916,-0.1175 -1.2428,-0.3611 -0.3253,-0.2437 -0.49211,-0.5881 -0.49211,-1.0501 0,-0.4871 0.17515,-0.9491 0.52547,-1.3691 0.34198,-0.4284 0.79239,-0.7643 1.32621,-1.0164 0.53382,-0.2519 1.05929,-0.3695 1.56808,-0.3695 0.49212,0 0.8758,0.092 1.16773,0.2856 z m 0.43373,-12.9188 c 0,0.5796 0.11677,1.0583 0.34197,1.4447 0.2252,0.3865 0.61723,0.8232 1.16773,1.3188 0.5505,0.4956 0.98422,0.8987 1.29283,1.2264 0.30862,0.3276 0.59221,0.7643 0.85078,1.3188 0.05,-0.2101 0.0668,-0.4369 0.0668,-0.6888 0,-0.6468 -0.17516,-1.26 -0.54216,-1.8396 -0.35866,-0.588 -0.81741,-1.1088 -1.3846,-1.5624 -0.55883,-0.4619 -1.15938,-0.8651 -1.79328,-1.2179 z m -0.0334,3.0911 c 0,0.5628 0.1418,1.0919 0.41704,1.5707 0.27526,0.4788 0.64226,0.9492 1.09267,1.4112 0.45874,0.4536 0.89247,0.8903 1.30952,1.2935 0.4087,0.4116 0.69229,0.7813 0.83408,1.1004 0.0584,-0.2772 0.0834,-0.5208 0.0834,-0.7223 0,-0.9912 -0.37533,-1.89 -1.13436,-2.7048 -0.75902,-0.8064 -1.62647,-1.4531 -2.60235,-1.9487 z m 0.0334,-6.2158 c 0,0.5544 0.10843,1.0248 0.31695,1.4027 0.20852,0.3781 0.5922,0.8233 1.13436,1.3356 0.5505,0.5124 0.96755,0.9239 1.26782,1.2348 0.29193,0.3108 0.5922,0.7644 0.90081,1.3523 0.0334,-0.2184 0.05,-0.4199 0.05,-0.6216 0,-0.7811 -0.19184,-1.4615 -0.57552,-2.0495 -0.38368,-0.5963 -0.82575,-1.0752 -1.30952,-1.4447 -0.48377,-0.3696 -1.07598,-0.7728 -1.78495,-1.2096 z"
             id="path31"
             style="fill:#131516;fill-opacity:0.58823529;fill-rule:evenodd;stroke:#131516;stroke-width:0.02511075;image-rendering:optimizeQuality;shape-rendering:geometricPrecision;text-rendering:geometricPrecision" />
          <path
             inkscape:connector-curvature="0"
             class="fil1 str1"
             d="m 393.10144,1039.63 v -15.4219 h 0.4087 c 0.05,0.5628 0.15847,1.008 0.32529,1.3188 0.16682,0.3107 0.4087,0.63 0.75068,0.9491 0.33364,0.3193 0.80907,0.7645 1.41795,1.3441 1.09266,1.0583 1.63482,2.3014 1.63482,3.7462 0,0.4956 -0.0667,0.9827 -0.20018,1.4784 0.13345,0.4199 0.20018,0.8735 0.20018,1.3439 0,0.3696 -0.05,0.798 -0.16682,1.2768 0.26691,0.3444 0.40037,0.8903 0.40037,1.6463 0,0.5208 -0.0668,1.0583 -0.21687,1.596 -0.14179,0.5375 -0.35032,1.0163 -0.63391,1.4447 h -0.2669 c 0.50045,-1.0499 0.75068,-1.9571 0.75068,-2.7215 0,-0.4872 -0.0917,-0.9324 -0.28359,-1.3272 -0.19185,-0.4031 -0.45876,-0.7643 -0.80073,-1.0919 -0.34198,-0.3192 -0.70898,-0.6216 -1.10934,-0.8988 -0.40036,-0.2688 -1.00091,-0.6636 -1.80163,-1.1676 v 7.5766 c 0,0.4956 -0.16682,0.9491 -0.50046,1.3607 -0.33363,0.4117 -0.75068,0.7392 -1.25947,0.9744 -0.5088,0.2352 -1.00925,0.3527 -1.50136,0.3527 -0.50045,0 -0.90916,-0.1259 -1.22611,-0.3695 -0.31696,-0.252 -0.47544,-0.6216 -0.47544,-1.1088 0,-0.4787 0.17516,-0.9239 0.51714,-1.3355 0.33364,-0.4116 0.76736,-0.7392 1.28449,-0.9912 0.51715,-0.2435 1.00091,-0.3611 1.45967,-0.3611 0.54215,0 0.97588,0.126 1.29284,0.3863 z m 0.46709,-12.3644 c 0,0.4957 0.11677,0.924 0.33363,1.2684 0.21686,0.3528 0.60054,0.7811 1.1427,1.2851 0.54215,0.5041 0.96754,0.9156 1.27616,1.2516 0.30861,0.336 0.60054,0.7896 0.86745,1.3524 0.0334,-0.2017 0.05,-0.3948 0.05,-0.5712 0,-0.6888 -0.1835,-1.3104 -0.55884,-1.8731 -0.37535,-0.5712 -0.79239,-1.0332 -1.26781,-1.4028 -0.4671,-0.3696 -1.08432,-0.8063 -1.84334,-1.3104 z m -0.0334,2.9231 c 0.0334,0.5293 0.1835,0.9996 0.45041,1.4196 0.2669,0.42 0.60054,0.8232 1.00925,1.218 0.4087,0.3864 0.83408,0.7811 1.26781,1.1927 0.43373,0.4116 0.74234,0.7896 0.92584,1.1256 0.0166,-0.093 0.0166,-0.2268 0.0166,-0.4032 0,-1.6967 -1.21776,-3.2172 -3.66998,-4.5527 z"
             id="path29-0"
             style="font-style:normal;font-variant:normal;font-weight:normal;font-stretch:normal;font-size:13.65747356px;line-height:100%;font-family:'Estrangelo Edessa';-inkscape-font-specification:'Estrangelo Edessa, Normal';text-align:start;letter-spacing:0px;word-spacing:0px;writing-mode:lr-tb;text-anchor:start;fill:#131516;fill-opacity:0.58823529;fill-rule:evenodd;stroke:#131516;stroke-width:0.02511075;stroke-linecap:butt;stroke-linejoin:miter;stroke-opacity:1;image-rendering:optimizeQuality;shape-rendering:geometricPrecision;text-rendering:geometricPrecision" />
          <path
             inkscape:connector-curvature="0"
             class="fil1 str1"
             d="m 357.71316,1022.967 h 0.40036 c 0.10009,0.6383 0.2252,1.1759 0.39202,1.6127 0.15848,0.4284 0.35033,0.7979 0.55884,1.1087 0.21686,0.3109 0.54216,0.7057 0.97588,1.1928 0.43373,0.4871 0.77571,0.8988 1.04262,1.2431 0.80072,1.0332 1.20108,2.1168 1.20108,3.2423 0,1.1592 -0.48376,2.5704 -1.46799,4.2335 h -0.26691 c 0.12512,-0.294 0.27525,-0.63 0.44207,-1.008 0.15848,-0.3864 0.30027,-0.7308 0.41704,-1.0415 0.10843,-0.3108 0.20019,-0.6216 0.26692,-0.9324 0.0584,-0.3107 0.0917,-0.6132 0.0917,-0.9156 0,-0.4787 -0.0917,-0.9575 -0.28359,-1.4363 -0.19184,-0.4872 -0.46709,-0.9324 -0.80906,-1.344 -0.35032,-0.4116 -0.74234,-0.7392 -1.18441,-0.9995 -0.44206,-0.252 -0.90082,-0.3948 -1.37625,-0.42 v 9.5085 c 0,0.5375 -0.15847,1.0247 -0.49211,1.4448 -0.3253,0.4199 -0.75067,0.7474 -1.26782,0.9742 -0.50879,0.2268 -1.01758,0.336 -1.52638,0.336 -0.48377,0 -0.89248,-0.1259 -1.21777,-0.3695 -0.31696,-0.2436 -0.48377,-0.6048 -0.48377,-1.0752 0,-0.4955 0.16681,-0.9575 0.49211,-1.386 0.32529,-0.4199 0.74234,-0.7559 1.2428,-0.9995 0.50045,-0.2436 0.98422,-0.3696 1.45131,-0.3696 0.65059,0 1.11768,0.126 1.40127,0.3864 v -8.5846 z"
             id="path25-9"
             style="font-style:normal;font-variant:normal;font-weight:normal;font-stretch:normal;font-size:13.65747356px;line-height:100%;font-family:'Estrangelo Edessa';-inkscape-font-specification:'Estrangelo Edessa, Normal';text-align:start;letter-spacing:0px;word-spacing:0px;writing-mode:lr-tb;text-anchor:start;fill:#131516;fill-opacity:0.58823529;fill-rule:evenodd;stroke:#131516;stroke-width:0.02511075;stroke-linecap:butt;stroke-linejoin:miter;stroke-opacity:1;image-rendering:optimizeQuality;shape-rendering:geometricPrecision;text-rendering:geometricPrecision" />
          <path
             inkscape:connector-curvature="0"
             class="fil1 str1"
             d="m 453.05528,1015.3699 v 14.0443 c 0,0.5208 -0.16681,0.9912 -0.50044,1.4028 -0.33364,0.42 -0.75902,0.7476 -1.26783,0.9744 -0.51713,0.2268 -1.01758,0.3443 -1.50969,0.3443 -0.46709,0 -0.85911,-0.1259 -1.17607,-0.3695 -0.31695,-0.252 -0.49212,-0.5964 -0.52547,-1.0416 0.0166,-0.4872 0.20018,-0.9491 0.54216,-1.3775 0.34197,-0.4284 0.7757,-0.7728 1.28449,-1.0248 0.50879,-0.2604 1.00925,-0.3864 1.49302,-0.3864 0.49211,0 0.9175,0.1428 1.25947,0.42 v -12.986 z"
             id="path23-4"
             style="font-style:normal;font-variant:normal;font-weight:normal;font-stretch:normal;font-size:13.65747356px;line-height:100%;font-family:'Estrangelo Edessa';-inkscape-font-specification:'Estrangelo Edessa, Normal';text-align:start;letter-spacing:0px;word-spacing:0px;writing-mode:lr-tb;text-anchor:start;fill:#131516;fill-opacity:0.58823529;fill-rule:evenodd;stroke:#131516;stroke-width:0.02511075;stroke-linecap:butt;stroke-linejoin:miter;stroke-opacity:1;image-rendering:optimizeQuality;shape-rendering:geometricPrecision;text-rendering:geometricPrecision" />
          <path
             inkscape:connector-curvature="0"
             class="fil1 str1"
             d="m 470.82353,1021.104 v 14.0443 c 0,0.5208 -0.16681,0.9912 -0.50045,1.4028 -0.33364,0.42 -0.75902,0.7476 -1.26782,0.9744 -0.51713,0.2268 -1.01759,0.3443 -1.5097,0.3443 -0.46709,0 -0.85911,-0.1259 -1.17607,-0.3695 -0.31695,-0.2521 -0.49211,-0.5964 -0.52547,-1.0416 0.0166,-0.4872 0.20018,-0.9492 0.54216,-1.3775 0.34197,-0.4284 0.7757,-0.7728 1.28449,-1.0248 0.5088,-0.2604 1.00925,-0.3864 1.49302,-0.3864 0.49212,0 0.9175,0.1428 1.25948,0.42 v -12.986 z"
             id="path23-6"
             style="font-style:normal;font-variant:normal;font-weight:normal;font-stretch:normal;font-size:13.65747356px;line-height:100%;font-family:'Estrangelo Edessa';-inkscape-font-specification:'Estrangelo Edessa, Normal';text-align:start;letter-spacing:0px;word-spacing:0px;writing-mode:lr-tb;text-anchor:start;fill:#131516;fill-opacity:0.58823529;fill-rule:evenodd;stroke:#131516;stroke-width:0.02511075;stroke-linecap:butt;stroke-linejoin:miter;stroke-opacity:1;image-rendering:optimizeQuality;shape-rendering:geometricPrecision;text-rendering:geometricPrecision" />
          <path
             inkscape:connector-curvature="0"
             class="fil1 str1"
             d="m 505.9472,1039.4256 v -12.8012 h 0.40036 v 14.2795 c -0.008,0.4536 -0.1835,0.882 -0.52547,1.2936 -0.34198,0.4116 -0.75068,0.7475 -1.2428,0.9996 -0.48377,0.2436 -0.94252,0.3779 -1.36791,0.3948 -0.44206,0 -0.79238,-0.059 -1.05929,-0.168 -0.25856,-0.1092 -0.45041,-0.294 -0.57552,-0.5628 -0.11677,-0.2688 -0.1835,-0.6468 -0.1835,-1.1255 0.0166,-0.5124 0.19184,-0.9744 0.53382,-1.386 0.35031,-0.4032 0.78404,-0.7224 1.30118,-0.9576 0.51713,-0.2268 1.02593,-0.336 1.51804,-0.336 0.47543,0 0.87579,0.1176 1.20109,0.3696 z m -2.98604,1.5455 c -0.17516,0.1092 -0.40037,0.3276 -0.67561,0.6553 -0.27525,0.3275 -0.42539,0.6047 -0.44207,0.8399 0.0334,0.2352 0.18349,0.378 0.43372,0.4368 0.25023,0 0.57552,-0.084 0.97589,-0.2521 0.39202,-0.1595 0.7757,-0.3863 1.1427,-0.6719 0.24189,-0.1596 0.5505,-0.4452 0.9175,-0.8484 0.367,-0.4032 0.5505,-0.7307 0.5505,-0.9828 0,-0.2351 -0.11678,-0.3779 -0.367,-0.4367 -0.60888,0 -1.45132,0.42 -2.53563,1.2599 z"
             id="path19-2"
             style="font-style:normal;font-variant:normal;font-weight:normal;font-stretch:normal;font-size:13.65747356px;line-height:100%;font-family:'Estrangelo Edessa';-inkscape-font-specification:'Estrangelo Edessa, Normal';text-align:start;letter-spacing:0px;word-spacing:0px;writing-mode:lr-tb;text-anchor:start;fill:#131516;fill-opacity:0.58823529;fill-rule:evenodd;stroke:#131516;stroke-width:0.02511075;stroke-linecap:butt;stroke-linejoin:miter;stroke-opacity:1;image-rendering:optimizeQuality;shape-rendering:geometricPrecision;text-rendering:geometricPrecision" />
          <path
             inkscape:connector-curvature="0"
             class="fil1 str1"
             d="m 486.06037,1033.8754 v -16.5307 -2.5871 h 0.40036 c 0,0.6551 0.15013,1.1928 0.45874,1.6044 0.30862,0.4032 0.80073,0.9323 1.49303,1.5791 0.69229,0.6468 1.21777,1.2684 1.56808,1.8647 0.35032,0.6047 0.52548,1.3692 0.52548,2.2932 0,0.4451 -0.0584,0.9743 -0.16682,1.5791 0.20018,0.3863 0.30028,0.882 0.30028,1.4783 0,0.5712 -0.1001,1.1088 -0.30028,1.6128 0.21686,0.504 0.33363,1.0415 0.33363,1.596 0,0.5459 -0.11677,1.0415 -0.33363,1.4783 0.25857,0.3948 0.39202,0.9576 0.39202,1.6799 0,1.0248 -0.25022,2.0664 -0.75068,3.1415 h -0.30027 c 0.45875,-1.3103 0.68395,-2.3267 0.68395,-3.0407 0,-0.546 -0.10009,-0.9827 -0.30026,-1.3271 -0.20853,-0.3444 -0.44208,-0.6133 -0.70065,-0.798 -0.25856,-0.1848 -0.70897,-0.4704 -1.35122,-0.8568 -0.64225,-0.3863 -1.1427,-0.7307 -1.51804,-1.0331 l -0.0334,7.3581 c 0,0.5544 -0.16682,1.0415 -0.49212,1.47 -0.33363,0.4283 -0.75068,0.7476 -1.25947,0.9744 -0.5088,0.2267 -1.00925,0.3443 -1.50136,0.3443 -0.50045,0 -0.90915,-0.1176 -1.2428,-0.3612 -0.32529,-0.2436 -0.4921,-0.588 -0.4921,-1.05 0,-0.4871 0.17515,-0.9491 0.52547,-1.3691 0.34198,-0.4284 0.79238,-0.7644 1.3262,-1.0164 0.53382,-0.2519 1.05929,-0.3695 1.56809,-0.3695 0.49211,0 0.8758,0.092 1.16773,0.2856 z m 0.43372,-12.9188 c 0,0.5796 0.11677,1.0583 0.34197,1.4447 0.22521,0.3864 0.61723,0.8232 1.16774,1.3188 0.55049,0.4956 0.98422,0.8987 1.29283,1.2264 0.30861,0.3275 0.59221,0.7643 0.85077,1.3187 0.05,-0.21 0.0668,-0.4368 0.0668,-0.6887 0,-0.6469 -0.17516,-1.26 -0.54216,-1.8396 -0.35866,-0.588 -0.81741,-1.1088 -1.38459,-1.5624 -0.55884,-0.4619 -1.15939,-0.8651 -1.79329,-1.2179 z m -0.0334,3.0911 c 0,0.5628 0.14179,1.0919 0.41704,1.5707 0.27525,0.4788 0.64225,0.9492 1.09266,1.4112 0.45874,0.4535 0.89247,0.8903 1.30952,1.2935 0.4087,0.4116 0.69229,0.7812 0.83409,1.1004 0.0584,-0.2772 0.0834,-0.5208 0.0834,-0.7224 0,-0.9912 -0.37534,-1.8899 -1.13436,-2.7047 -0.75902,-0.8064 -1.62648,-1.4531 -2.60236,-1.9487 z m 0.0334,-6.2158 c 0,0.5544 0.10843,1.0248 0.31695,1.4027 0.20852,0.3781 0.59221,0.8232 1.13437,1.3356 0.55049,0.5124 0.96754,0.9239 1.26781,1.2348 0.29193,0.3108 0.5922,0.7644 0.90082,1.3523 0.0334,-0.2184 0.05,-0.4199 0.05,-0.6216 0,-0.7811 -0.19184,-1.4615 -0.57552,-2.0495 -0.38368,-0.5964 -0.82574,-1.0752 -1.30952,-1.4447 -0.48377,-0.3697 -1.07598,-0.7728 -1.78495,-1.2096 z"
             id="path31-7"
             style="font-style:normal;font-variant:normal;font-weight:normal;font-stretch:normal;font-size:13.65747356px;line-height:100%;font-family:'Estrangelo Edessa';-inkscape-font-specification:'Estrangelo Edessa, Normal';text-align:start;letter-spacing:0px;word-spacing:0px;writing-mode:lr-tb;text-anchor:start;fill:#131516;fill-opacity:0.58823529;fill-rule:evenodd;stroke:#131516;stroke-width:0.02511075;stroke-linecap:butt;stroke-linejoin:miter;stroke-opacity:1;image-rendering:optimizeQuality;shape-rendering:geometricPrecision;text-rendering:geometricPrecision" />
        </g>
      </g>
    </g>
  </g>
</svg>
